<svg width="116" height="105" viewBox="0 0 116 105" fill="none" xmlns="http://www.w3.org/2000/svg">
<path d="M10 0.385132L12.7009 7.68422L20 10.3851L12.7009 13.086L10 20.3851L7.29909 13.086L0 10.3851L7.29909 7.68422L10 0.385132Z" fill="#EB1400"/>
<path d="M42 0.385132L44.7009 7.68422L52 10.3851L44.7009 13.086L42 20.3851L39.2991 13.086L32 10.3851L39.2991 7.68422L42 0.385132Z" fill="#EB1400"/>
<path d="M74 0.385132L76.7009 7.68422L84 10.3851L76.7009 13.086L74 20.3851L71.2991 13.086L64 10.3851L71.2991 7.68422L74 0.385132Z" fill="#EB1400"/>
<path d="M106 0.385132L108.701 7.68422L116 10.3851L108.701 13.086L106 20.3851L103.299 13.086L96 10.3851L103.299 7.68422L106 0.385132Z" fill="#EB1400"/>
<path d="M10 28.3851L12.7009 35.6842L20 38.3851L12.7009 41.086L10 48.3851L7.29909 41.086L0 38.3851L7.29909 35.6842L10 28.3851Z" fill="#EB1400"/>
<path d="M42 28.3851L44.7009 35.6842L52 38.3851L44.7009 41.086L42 48.3851L39.2991 41.086L32 38.3851L39.2991 35.6842L42 28.3851Z" fill="#EB1400"/>
<path d="M74 28.3851L76.7009 35.6842L84 38.3851L76.7009 41.086L74 48.3851L71.2991 41.086L64 38.3851L71.2991 35.6842L74 28.3851Z" fill="#EB1400"/>
<path d="M106 28.3851L108.701 35.6842L116 38.3851L108.701 41.086L106 48.3851L103.299 41.086L96 38.3851L103.299 35.6842L106 28.3851Z" fill="#EB1400"/>
<path d="M10 56.3851L12.7009 63.6842L20 66.3851L12.7009 69.086L10 76.3851L7.29909 69.086L0 66.3851L7.29909 63.6842L10 56.3851Z" fill="#EB1400"/>
<path d="M42 56.3851L44.7009 63.6842L52 66.3851L44.7009 69.086L42 76.3851L39.2991 69.086L32 66.3851L39.2991 63.6842L42 56.3851Z" fill="#EB1400"/>
<path d="M74 56.3851L76.7009 63.6842L84 66.3851L76.7009 69.086L74 76.3851L71.2991 69.086L64 66.3851L71.2991 63.6842L74 56.3851Z" fill="#EB1400"/>
<path d="M106 56.3851L108.701 63.6842L116 66.3851L108.701 69.086L106 76.3851L103.299 69.086L96 66.3851L103.299 63.6842L106 56.3851Z" fill="#EB1400"/>
<path d="M10 84.3851L12.7009 91.6842L20 94.3851L12.7009 97.086L10 104.385L7.29909 97.086L0 94.3851L7.29909 91.6842L10 84.3851Z" fill="#EB1400"/>
<path d="M42 84.3851L44.7009 91.6842L52 94.3851L44.7009 97.086L42 104.385L39.2991 97.086L32 94.3851L39.2991 91.6842L42 84.3851Z" fill="#EB1400"/>
<path d="M74 84.3851L76.7009 91.6842L84 94.3851L76.7009 97.086L74 104.385L71.2991 97.086L64 94.3851L71.2991 91.6842L74 84.3851Z" fill="#EB1400"/>
<path d="M106 84.3851L108.701 91.6842L116 94.3851L108.701 97.086L106 104.385L103.299 97.086L96 94.3851L103.299 91.6842L106 84.3851Z" fill="#EB1400"/>
</svg>
