<svg width="204" height="141" viewBox="0 0 204 141" fill="none" xmlns="http://www.w3.org/2000/svg">
<path d="M47.6755 38.4221C45.8097 36.8584 38.0652 41.8037 38.0652 41.8037L34.0098 46.6432L25.6506 44.7418C22.9105 43.7155 12.6673 50.3791 12.6673 50.3791C-22.023 52.8605 25.536 108.81 25.536 108.81C37.6129 122.953 49.1592 118.018 49.1592 118.018C60.1604 122.579 69.3548 111.86 69.3548 111.86C78.6855 111.844 79.9982 103.203 79.9982 103.203L79.4009 77.6271C79.3288 74.5354 78.8001 71.4715 77.8311 68.5352L70.8003 47.2145C57.0392 19.1633 47.6755 38.4221 47.6755 38.4221Z" fill="#FFB400"/>
<path d="M69.1082 66.0148C70.9627 30.761 48.1816 37.5244 48.1816 37.5244C50.2975 34.068 58.905 22.9671 70.8021 47.2145L77.8329 68.5353C78.8009 71.4724 79.3305 74.5355 79.4026 77.6272L79.9999 103.203C79.9999 103.203 78.6881 111.844 69.3565 111.86C83.0048 97.3426 74.7941 84.2291 70.0085 74.288C68.7974 71.7728 68.9615 68.8035 69.1082 66.0148Z" fill="#F69800"/>
<path d="M25.5367 108.81C25.5367 108.81 -22.0232 52.8605 12.6672 50.3792C12.6672 50.3792 3.13508 55.5207 6.78765 67.3345C6.78765 67.3345 18.8662 108.852 49.16 118.019C49.16 118.019 37.6136 122.953 25.5367 108.81Z" fill="#F69800"/>
<path d="M15.272 55.5259C15.272 55.5259 9.55484 69.0874 24.146 83.0092C24.146 83.0092 3.08925 72.4222 15.272 55.5259Z" fill="#F69800"/>
<path d="M26.7012 91.0793C26.7012 91.0793 39.1496 108.57 46.8064 115.269C46.8064 115.269 37.2942 97.9808 26.7012 91.0793Z" fill="#F69800"/>
<path d="M27.8292 54.8617C32.502 54.9294 38.6776 53.5403 44.6926 47.7102C44.6926 47.7102 57.7557 40.5449 56.568 65.5468C56.568 65.5468 54.3549 80.6546 55.4532 84.3975C56.1842 86.891 59.552 96.1019 61.72 101.977C63.1395 105.823 61.3206 110.112 57.5647 111.755C57.497 111.784 57.4284 111.814 57.3598 111.843C54.2195 113.165 50.5782 112.179 48.4354 109.531L35.0181 92.9476C35.0181 92.9476 22.7137 79.4443 18.5984 67.3944C16.4635 61.1424 21.223 54.7653 27.8292 54.8617Z" fill="#FFBE2E"/>
<path d="M69.357 111.861C69.357 111.861 74.3544 93.1787 62.999 81.1218C62.999 81.1218 80.3781 89.191 69.357 111.861Z" fill="#F69800"/>
<path d="M47.6758 38.4221C47.6758 38.4221 66.4639 48.0237 60.831 63.4927C60.831 63.4927 72.228 44.8973 47.6758 38.4221Z" fill="#F69800"/>
<path d="M38.0657 41.8038C38.0657 41.8038 30.6078 17.0415 44.336 11.1471C46.3155 10.2972 48.6371 10.7356 50.1035 12.314C50.4135 12.6483 50.8024 13.019 51.2878 13.4253L57.96 5.46383C57.96 5.46383 57.9062 -1.92294 47.6343 0.481149C47.6343 0.481149 23.076 8.9827 25.6511 44.741L34.0103 46.6423L38.0657 41.8038Z" fill="#4F8403"/>
<path d="M50.5401 7.03977L51.3744 6.04479C53.0327 4.06613 55.982 3.80567 57.9607 5.46396L51.2885 13.4255L50.3048 11.9947C49.2612 10.4779 49.3576 8.45149 50.5401 7.03977Z" fill="#679E07"/>
<path d="M45.7382 10.7678C45.2624 10.8286 44.7901 10.9528 44.3352 11.1481C30.607 17.0424 38.0649 41.8047 38.0649 41.8047L34.0095 46.6442L31.9223 46.1693C31.9223 46.1693 27.866 11.9 45.7382 10.7678Z" fill="#406807"/>
<path d="M30.4736 86.0905C28.1425 81.1616 26.644 75.8516 25.9285 70.447C25.7063 68.767 25.5656 67.0158 26.123 65.4157C26.6804 63.8156 28.1104 62.4047 29.8043 62.3804C29.371 59.8539 23.5453 59.6204 21.9643 60.9392C19.8745 62.6826 20.8504 66.2683 21.3131 68.5195C21.999 71.8596 23.185 75.0971 24.7756 78.1116C26.2706 80.9437 29.1652 83.3226 30.4736 86.0905Z" fill="#F2F2F2"/>
<path d="M153.636 85.211C154.597 96.4081 148.776 107.835 139.348 113.952C129.92 120.069 117.324 120.782 107.106 116.106C96.8867 111.43 89.2664 101.625 86.8853 90.6413C85.6762 85.0656 85.8097 78.9843 88.5206 73.965C91.4734 68.4958 97.0186 64.9968 102.422 61.924C111.094 56.991 121.148 52.386 130.725 55.1747C142.923 58.7261 152.579 72.8809 153.636 85.211Z" fill="#B60006"/>
<path d="M147.167 82.3292C147.985 91.8774 143.022 101.623 134.98 106.841C126.939 112.056 116.198 112.665 107.482 108.677C98.7662 104.689 92.2671 96.3268 90.2377 86.9595C89.2078 82.2041 89.3195 77.019 91.6313 72.7371C94.1494 68.0729 98.8795 65.088 103.486 62.4685C110.881 58.2626 119.456 54.3341 127.624 56.7135C138.029 59.7423 146.265 71.8137 147.167 82.3292Z" fill="#D2171F"/>
<path d="M133.71 93.9407C130.468 99.7633 125.347 105.183 118.745 106.09C110.56 107.213 103.098 101.094 98.3564 94.3297C96.3693 91.4953 94.6105 88.387 94.093 84.9641C93.2458 79.3665 95.8907 73.6944 99.7719 69.5714C103.651 65.4484 108.664 62.6039 113.595 59.8203C114.642 59.2284 115.726 58.6263 116.922 58.4859C118.454 58.3067 119.959 58.9104 121.385 59.5023C127.491 62.0356 137.728 64.0904 139.076 71.6701C140.265 78.3585 136.857 88.2906 133.71 93.9407Z" fill="#FF3109"/>
<path d="M95.4394 82.7672C95.3058 81.712 95.3684 80.6313 95.6254 79.598C95.9281 78.377 96.6063 77.1256 97.7884 76.6927C99.8955 75.9215 101.93 78.2232 102.388 80.4183C102.847 82.6134 102.524 85.0114 103.54 87.0103C104.712 89.3153 107.592 91.0369 107.228 93.599C106.934 95.6723 104.377 96.8138 102.356 96.2642C100.335 95.7163 99.5692 94.1131 98.4868 92.3205C96.4372 88.9281 96.0668 87.4365 95.4394 82.7672Z" fill="#F94E38"/>
<path d="M113.881 82.5948C114.327 82.0418 114.987 81.4296 115.648 81.6918C116.096 81.8693 116.303 82.3767 116.458 82.8333C118.587 89.0787 120.108 95.5321 120.989 102.073C122.511 95.3173 119.068 88.4157 119.25 81.4939C127.804 83.9748 137.138 83.689 145.524 80.6855C136.351 79.6117 127.204 78.3264 118.092 76.8331C123.318 67.7804 125.386 56.9436 123.86 46.6023C123.253 50.4666 122.646 54.3325 122.039 58.1968C121.393 62.3028 120.492 66.8469 117.125 69.2839C116.754 69.5511 116.286 69.7963 115.86 69.6289C115.366 69.4361 115.225 68.8239 115.09 68.3132C114.302 65.3401 111.214 63.1569 108.146 63.4089C110.7 65.5228 112.028 69.0217 111.522 72.2992C111.458 72.7118 111.358 73.1397 111.08 73.4508C110.487 74.1171 109.423 73.9514 108.559 73.7316C105.3 72.9029 101.752 71.8798 99.8581 69.0995C98.6777 70.7924 99.8141 73.2242 101.483 74.4368C103.152 75.6493 105.244 76.1398 106.995 77.2339C108.745 78.3281 110.186 80.4894 109.379 82.3885C108.737 83.9038 106.601 85.5898 105.765 87.007C100.479 95.9802 100.212 100.868 100.787 100.051C103.391 96.3489 107.406 91.1063 108.573 89.5048C110.286 87.1592 112.056 84.8542 113.881 82.5948Z" fill="#3E873C"/>
<path d="M113.091 73.8432C112.952 70.5167 112.069 68.7765 111.217 66.0623C112.822 67.9259 114.044 70.1159 114.788 72.4598C116.698 71.9982 118.064 70.3679 119.287 68.8306C118.761 70.5962 117.929 72.2721 116.836 73.7552C116.309 74.4723 115.648 75.1876 114.77 75.3314C113.894 75.4751 112.864 74.7023 113.091 73.8432Z" fill="#7BAE65"/>
<path d="M113.951 78.8694C113.009 83.7196 108.661 87.4096 105.267 90.6668C106.997 86.9175 113.185 82.8114 113.951 78.8694Z" fill="#7BAE65"/>
<path d="M111.995 75.4582C107.839 75.1605 103.759 73.8178 100.24 71.5854C101.96 73.2174 103.719 74.8747 105.857 75.9012C107.994 76.9278 110.61 77.2389 112.709 76.1346" fill="#7BAE65"/>
<path d="M113.981 75.2334C114.773 75.3315 115.838 76.336 116.1 76.7842C116.362 77.2323 116.24 78.34 116.024 78.8102C114.521 79.4866 112.322 80.1715 111.204 81.4636C111.294 81.3621 109.894 79.5965 109.812 79.3868C109.55 78.7155 109.237 78.4398 109.838 78.0948C111.245 77.2864 113.054 76.3969 113.981 75.2334Z" fill="#2E682B"/>
<path d="M108.475 81.1744C107.58 80.1783 108.51 78.2623 109.84 78.0948C111.169 77.9274 112.342 79.5374 111.8 80.7617C111.257 81.9861 109.312 82.2195 108.475 81.1744Z" fill="#D5E1A6"/>
<path d="M99.2069 92.5269C97.7373 90.8222 97.3585 89.197 96.7717 87.0222C96.6009 86.3881 96.4724 85.7082 96.6635 85.0791C96.8545 84.45 97.4617 83.9021 98.1127 83.9934C99.2424 84.149 99.3591 85.693 99.4555 86.8294C99.5824 88.3176 100.208 89.7585 101.206 90.8696C101.815 91.546 102.623 92.3392 102.327 93.2C102.002 94.147 100.819 94.3432 99.2069 92.5269Z" fill="#F2F2F2"/>
<path d="M152.242 111.23C151.712 109.625 149.48 109.012 148.03 109.885C146.579 110.757 146.006 112.702 146.419 114.342C146.834 115.982 148.066 117.32 149.496 118.226C150.206 118.676 150.989 119.041 151.825 119.128C154.187 119.369 156.253 117.38 158.623 117.249C159.901 117.178 161.359 117.609 162.35 116.799C163.756 115.653 162.642 113.209 160.986 112.471C159.33 111.732 157.401 111.929 155.672 111.385C153.98 110.849 153.903 110.592 152.242 111.23Z" fill="#F2F2F2" fill-opacity="0.25"/>
<path d="M127.744 123.346C127.631 121.706 125.04 121.393 123.936 122.61C122.832 123.827 122.837 125.656 122.908 127.298C122.94 128.021 123.034 128.862 123.652 129.24C124.506 129.763 125.549 128.986 126.243 128.263C127.034 127.44 127.867 126.528 127.994 125.396C128.12 124.26 128.84 123.028 127.744 123.346Z" fill="#F2F2F2" fill-opacity="0.25"/>
<path d="M129.986 101.099C131.082 100.802 131.594 102.555 131.042 103.546C130.49 104.537 129.447 105.328 129.373 106.46C129.305 107.499 129.88 108.968 128.895 109.294C128.49 109.428 128.057 109.209 127.718 108.949C126.317 107.872 125.67 105.903 126.157 104.203C126.645 102.503 128.238 101.178 129.996 101.007" fill="#F2F2F2" fill-opacity="0.25"/>
<path d="M136.74 90.7711C136.73 91.4833 136.803 92.214 137.1 92.8605C137.397 93.5096 137.944 94.0694 138.632 94.2507C139.024 94.3532 139.473 94.3191 139.784 94.0615C140.225 93.6962 140.257 93.026 140.603 92.5714C141.187 91.8066 142.425 91.8986 143.116 91.2285C143.489 90.8684 143.647 90.3376 143.736 89.8277C143.802 89.4546 143.839 89.0655 143.747 88.6976C143.578 88.038 143 87.5334 142.354 87.3179C141.707 87.1024 141 87.1392 140.33 87.2627C139.77 87.3678 139.224 87.5334 138.701 87.7542C137.347 88.3271 136.761 89.31 136.74 90.7711Z" fill="#F2F2F2" fill-opacity="0.25"/>
<path d="M157.981 92.2349C157.489 93.0075 157.686 94.0614 158.209 94.8104C158.732 95.5594 159.523 96.0692 160.293 96.5633C161.463 97.3097 162.669 98.0718 164.033 98.3267C165.397 98.5816 166.971 98.2111 167.76 97.0705C168.167 96.4818 168.325 95.7565 168.396 95.0443C168.585 93.1626 167.831 90.8263 165.967 90.5162C164.624 90.2928 163.368 91.2467 162.015 91.3729C161.124 91.4544 160.23 91.1758 159.337 91.252C158.446 91.3282 157.468 91.9958 157.573 92.884" fill="#F2F2F2" fill-opacity="0.25"/>
<path d="M149.626 61.7889C149.134 62.5616 149.331 63.6154 149.854 64.3644C150.377 65.1134 151.168 65.6233 151.938 66.1173C153.108 66.8637 154.314 67.6258 155.676 67.8807C157.039 68.1357 158.614 67.7651 159.402 66.6245C159.809 66.0358 159.967 65.3105 160.038 64.5983C160.227 62.7166 159.473 60.3802 157.61 60.0701C156.267 59.8467 155.011 60.8008 153.657 60.9269C152.766 61.0084 151.873 60.7298 150.979 60.8061C150.088 60.8823 149.111 61.5497 149.216 62.438" fill="#F2F2F2" fill-opacity="0.25"/>
<path d="M175.921 85.8462C175.43 86.6189 175.627 87.6727 176.15 88.4217C176.673 89.1707 177.464 89.6806 178.234 90.1746C179.403 90.921 180.61 91.6831 181.974 91.938C183.338 92.1929 184.912 91.8224 185.7 90.6818C186.108 90.0931 186.265 89.3678 186.339 88.6556C186.528 86.7739 185.774 84.4376 183.911 84.1275C182.568 83.9041 181.311 84.8581 179.958 84.9842C179.067 85.0657 178.174 84.7871 177.28 84.8634C176.389 84.9396 175.411 85.6071 175.517 86.4954" fill="#F2F2F2" fill-opacity="0.25"/>
<path d="M194.579 107.919C195.449 108.203 196.421 107.748 197.015 107.055C197.609 106.361 197.909 105.467 198.193 104.6C198.624 103.281 199.06 101.925 198.968 100.54C198.876 99.1547 198.124 97.7224 196.823 97.2441C196.153 96.997 195.409 97.0233 194.703 97.1311C192.834 97.4175 190.758 98.7289 190.923 100.611C191.042 101.967 192.277 102.947 192.737 104.227C193.039 105.068 192.989 106.006 193.286 106.85C193.583 107.693 194.471 108.474 195.304 108.15" fill="#F2F2F2" fill-opacity="0.25"/>
<path d="M168.056 140.281C168.926 140.565 169.899 140.11 170.493 139.416C171.087 138.723 171.386 137.829 171.67 136.959C172.101 135.642 172.54 134.284 172.445 132.899C172.353 131.516 171.602 130.082 170.301 129.603C169.631 129.356 168.887 129.382 168.18 129.49C166.312 129.777 164.235 131.088 164.401 132.97C164.519 134.326 165.754 135.306 166.214 136.586C166.516 137.43 166.467 138.365 166.764 139.209C167.06 140.052 167.949 140.833 168.784 140.51" fill="#F2F2F2" fill-opacity="0.25"/>
<path d="M169.166 74.8426C169.954 75.3025 171.003 75.066 171.731 74.5141C172.459 73.9622 172.939 73.1528 173.402 72.3643C174.104 71.1686 174.819 69.9334 175.021 68.5616C175.223 67.1897 174.792 65.6313 173.623 64.8849C173.018 64.5012 172.288 64.3698 171.575 64.3252C169.689 64.2095 167.384 65.0505 167.145 66.9269C166.974 68.2751 167.972 69.4971 168.151 70.8453C168.267 71.7336 168.022 72.6377 168.133 73.526C168.243 74.4143 168.947 75.3656 169.83 75.2263" fill="#F2F2F2" fill-opacity="0.25"/>
<path d="M143.552 76.5428C141.513 76.3904 140.146 78.6558 139.789 80.6715C139.631 81.5677 139.571 82.5111 139.881 83.3679C140.188 84.2246 140.935 84.9683 141.841 85.0524C143.255 85.1786 144.343 83.6859 144.475 82.272C144.498 82.0092 144.506 81.7306 144.651 81.5098C145.045 80.9133 145.965 81.2391 146.672 81.1287C147.539 80.9921 148.133 80.0591 148.075 79.1813C148.017 78.3062 147.436 77.5309 146.714 77.029C145.442 76.1433 143.339 76.2011 142.664 77.5966" fill="#F2F2F2" fill-opacity="0.25"/>
<path d="M125.319 65.5706C123.279 65.4182 121.913 67.6835 121.555 69.6992C121.398 70.5954 121.337 71.5389 121.647 72.3956C121.955 73.2524 122.701 73.9962 123.608 74.0803C125.022 74.2064 126.11 72.7136 126.241 71.2997C126.265 71.0369 126.273 70.7583 126.417 70.5376C126.812 69.941 127.731 70.2669 128.438 70.1566C129.306 70.0199 129.899 69.0869 129.842 68.2092C129.784 67.334 129.203 66.5588 128.48 66.0568C127.208 65.1711 125.106 65.229 124.431 66.6245" fill="#F2F2F2" fill-opacity="0.25"/>
<path d="M199.361 117.664C197.321 117.511 195.955 119.777 195.597 121.793C195.44 122.689 195.382 123.632 195.689 124.489C195.997 125.346 196.743 126.092 197.65 126.174C199.064 126.3 200.152 124.807 200.283 123.393C200.307 123.13 200.315 122.852 200.459 122.631C200.854 122.034 201.773 122.36 202.48 122.25C203.348 122.116 203.942 121.18 203.884 120.302C203.826 119.427 203.245 118.652 202.522 118.15C201.25 117.264 199.148 117.322 198.473 118.718" fill="#F2F2F2" fill-opacity="0.25"/>
<path d="M179.56 104.692C180.324 103.183 179.186 101.167 177.546 100.752C175.907 100.337 174.122 101.299 173.25 102.75C172.377 104.2 172.298 106.019 172.664 107.669C172.845 108.489 173.137 109.304 173.665 109.956C175.158 111.803 178.025 111.869 179.788 113.456C180.74 114.313 181.46 115.651 182.732 115.785C184.534 115.974 185.486 113.464 184.842 111.769C184.198 110.074 182.7 108.844 181.867 107.233C181.052 105.654 181.181 105.42 179.56 104.692Z" fill="#F2F2F2" fill-opacity="0.25"/>
<path d="M153.387 95.8038C154.472 94.5686 152.866 92.5109 151.224 92.5844C149.581 92.658 148.288 93.951 147.171 95.1573C146.68 95.6882 146.152 96.3505 146.317 97.0548C146.548 98.0298 147.834 98.2216 148.837 98.2032C149.978 98.1848 151.211 98.1349 152.107 97.4253C153.003 96.7158 154.385 96.3583 153.387 95.8038Z" fill="#F2F2F2" fill-opacity="0.25"/>
<path d="M170.752 81.72C171.735 82.2877 170.852 83.8856 169.759 84.1931C168.666 84.5005 167.37 84.3166 166.516 85.0629C165.733 85.7462 165.094 87.1917 164.169 86.7186C163.791 86.5268 163.638 86.0642 163.586 85.6411C163.365 83.8856 164.303 82.0407 165.854 81.1892C167.404 80.3377 169.465 80.5348 170.826 81.6649" fill="#F2F2F2" fill-opacity="0.25"/>
<path d="M197.737 74.0488C196.407 72.493 193.837 73.1212 192.155 74.2854C191.409 74.8031 190.697 75.4285 190.308 76.2485C189.919 77.0711 189.914 78.125 190.494 78.8266C191.398 79.9199 193.227 79.6387 194.321 78.7373C194.523 78.5691 194.728 78.3772 194.986 78.3273C195.687 78.1854 196.103 79.0684 196.681 79.4942C197.388 80.0145 198.47 79.778 199.051 79.1183C199.632 78.4613 199.771 77.5021 199.622 76.6375C199.353 75.1106 197.832 73.6599 196.365 74.1644" fill="#F2F2F2" fill-opacity="0.25"/>
</svg>
