<svg width="52" height="50" viewBox="0 0 52 50" fill="none" xmlns="http://www.w3.org/2000/svg">
<path d="M50.8695 30.9821C49.7817 27.8257 46.9598 25.5554 43.9527 24.1045C47.2969 20.9496 49.8087 16.6915 50.0282 12.0996C50.2477 7.50769 47.8134 2.67176 43.5944 0.844627C39.3559 -0.989852 34.4082 0.430094 30.3124 2.56406C26.1538 4.73149 24.1455 7.62436 21.748 11.3545C16.6999 8.42246 11.336 4.51196 5.26136 7.75738C1.5516 9.73957 -0.616641 14.2531 0.155341 18.3881C0.927323 22.5222 4.57833 25.9504 8.75323 26.4604C6.66252 26.9076 5.42212 29.0734 4.81825 31.1241C3.52726 35.5104 4.02178 40.4981 6.59234 44.2797C9.16289 48.0612 13.9017 50.4025 18.4136 49.6656C22.9264 48.9287 26.8108 44.8738 26.9062 40.3022C31.5283 43.6529 37.5157 45.7029 42.9979 44.1107C48.4801 42.5203 52.7301 36.3795 50.8695 30.9821ZM38.6696 39.3173C34.5559 40.512 30.0627 38.9737 26.5945 36.4595C26.5227 39.8893 23.6078 42.9332 20.2212 43.4857C16.8354 44.0381 13.279 42.282 11.3499 39.4438C9.42076 36.6064 9.04946 32.8631 10.0189 29.572C10.4718 28.0329 11.4029 26.4074 12.9722 26.072C9.8394 25.6892 7.09992 23.1171 6.52052 20.0144C5.94113 16.9118 7.56833 13.5244 10.3519 12.0376C14.9103 9.60247 18.9351 12.5362 22.7232 14.7371C24.5217 11.938 26.0298 9.7665 29.1504 8.14093C32.2236 6.53902 35.9366 5.47409 39.1168 6.85076C42.2831 8.22091 44.1102 11.8507 43.9445 15.2961C43.7797 18.7422 41.8946 21.9371 39.3853 24.3044C41.6416 25.393 43.7593 27.0969 44.5762 29.4651C45.9724 33.5152 42.7833 38.1234 38.6696 39.3173Z" fill="#FF3700"/>
<path d="M42.2209 24.1805C45.2484 21.3243 47.5228 17.4693 47.7219 13.3115C47.921 9.15375 45.7169 4.77565 41.8969 3.12233C38.0599 1.46086 33.5798 2.74694 29.8716 4.67935C26.1064 6.64194 24.2882 9.26066 22.1175 12.6383C17.5468 9.98368 12.6913 6.44282 7.19118 9.38142C3.83232 11.1759 1.86972 15.2627 2.56826 19.0059C3.2668 22.7491 6.57261 25.8526 10.3526 26.3144C8.45932 26.7192 7.33643 28.6802 6.78968 30.5375C5.6211 34.5084 6.06911 39.0244 8.39567 42.4477C10.723 45.8711 15.013 47.9912 19.099 47.3236C23.1841 46.6569 26.7013 42.9847 26.7878 38.8465C30.9725 41.8806 36.3927 43.7355 41.3567 42.2943C46.3199 40.8532 50.1684 35.2934 48.4833 30.4069C47.4983 27.5499 44.9432 25.4943 42.2209 24.1805ZM39.4472 40.1791C35.087 41.4448 30.3254 39.8152 26.6499 37.1499C26.574 40.7854 23.4844 44.0105 19.8962 44.5964C16.3081 45.1823 12.5387 43.3201 10.4945 40.313C8.45034 37.3058 8.05701 33.339 9.0836 29.8512C9.56425 28.2199 10.55 26.498 12.2131 26.1422C8.89346 25.7367 5.98914 23.0111 5.37547 19.7224C4.7618 16.4346 6.48611 12.8447 9.43613 11.2681C14.2671 8.68697 18.5326 11.7969 22.5476 14.1284C24.4539 11.162 26.0517 8.86078 29.3591 7.13728C32.616 5.4399 36.551 4.31049 39.9221 5.76959C43.2777 7.22215 45.2134 11.0682 45.0387 14.72C44.8641 18.3718 42.8664 21.7585 40.2069 24.267C42.5979 25.4209 44.8421 27.226 45.7079 29.7361C47.1874 34.0294 43.8073 38.9134 39.4472 40.1791Z" fill="#FF5700"/>
<path d="M50.8695 30.9821C49.7817 27.8257 46.9598 25.5554 43.9527 24.1045C47.2969 20.9496 49.8087 16.6915 50.0282 12.0996C50.2477 7.50769 47.8134 2.67176 43.5944 0.844627C39.3559 -0.989852 34.4082 0.430094 30.3124 2.56406C26.1538 4.73149 24.1455 7.62436 21.748 11.3545C16.6999 8.42246 11.336 4.51196 5.26136 7.75738C1.5516 9.73957 -0.616641 14.2531 0.155341 18.3881C0.927323 22.5222 4.57833 25.9504 8.75323 26.4604C6.66252 26.9076 5.42212 29.0734 4.81825 31.1241C3.52726 35.5104 4.02178 40.4981 6.59234 44.2797C9.16289 48.0612 13.9017 50.4025 18.4136 49.6656C22.9264 48.9287 26.8108 44.8738 26.9062 40.3022C31.5283 43.6529 37.5157 45.7029 42.9979 44.1107C48.4801 42.5203 52.7301 36.3795 50.8695 30.9821ZM41.3568 42.295C36.3928 43.7362 30.9726 41.8805 26.7879 38.8472C26.7014 42.9862 23.1842 46.6576 19.0991 47.3243C15.014 47.991 10.7232 45.8718 8.3958 42.4485C6.06843 39.0251 5.62042 34.5091 6.78982 30.5382C7.33657 28.6809 8.45945 26.7199 10.3527 26.3152C6.57275 25.8533 3.26775 22.7498 2.5684 19.0066C1.86986 15.2634 3.83246 11.1766 7.19132 9.38214C12.6915 6.44354 17.547 9.98356 22.1177 12.639C24.2884 9.26218 26.1073 6.64267 29.8718 4.68007C33.5799 2.74766 38.06 1.46239 41.8971 3.12305C45.717 4.77637 47.9211 9.15528 47.722 13.3122C47.5229 17.47 45.2494 21.325 42.221 24.1812C44.9434 25.4942 47.4984 27.5507 48.4834 30.4077C50.1685 35.2933 46.3201 40.8531 41.3568 42.295Z" fill="#FF2D02"/>
<path d="M2.65152 13.8044C2.15781 16.0093 2.68824 18.3661 3.81684 20.3238C3.00568 17.9883 3.51816 15.314 4.84914 13.2299C6.21847 11.0853 8.25206 9.77308 10.4407 8.59879C6.72034 8.01776 3.49776 10.0261 2.65152 13.8044Z" fill="white"/>
</svg>
