<svg width="73" height="59" viewBox="0 0 73 59" fill="none" xmlns="http://www.w3.org/2000/svg">
<path d="M34.414 20.1097C33.556 26.4967 32.036 33.2777 27.323 37.6727C21.431 43.1677 12.254 43.3907 5.62895 47.9747C4.87295 44.0057 3.37095 40.1797 1.22395 36.7577C-0.962045 31.1557 -0.179046 24.4887 3.24595 19.5467C3.87795 18.6347 4.71396 17.7117 5.81996 17.6097C5.37296 17.6367 4.91896 17.4157 4.66596 17.0477C7.18396 14.6307 9.98995 12.5147 13.006 10.7567C12.618 10.6557 12.808 10.0627 13.082 9.7697C16.962 5.6297 23.195 4.24471 28.576 5.77671C35.09 7.62971 35.199 14.2647 34.414 20.1097Z" fill="#407200"/>
<path d="M23.1634 17.0467C22.3874 18.7087 21.7404 19.8697 21.1754 21.6147C18.1714 30.8947 12.5594 39.1207 5.40137 45.7467C8.25037 41.9397 10.9854 38.1737 13.5264 34.1547C14.4904 32.6297 15.4554 31.1027 16.3044 29.5107C18.2874 25.7907 19.6084 21.7607 21.2814 17.8907C22.1524 15.8767 23.1264 13.8957 24.3234 12.0537C25.0504 10.9337 28.3924 5.36873 29.8864 5.62373C32.1634 6.01173 27.3574 10.4117 26.8134 10.9937C25.2964 12.6167 24.1054 15.0257 23.1634 17.0467Z" fill="#3A6003"/>
<path d="M15.3905 10.5147C12.5885 12.0617 10.0855 14.0877 7.59951 16.1037C7.92651 16.2287 8.25252 16.3527 8.57952 16.4777C7.24352 17.6987 6.05451 19.0797 5.04451 20.5817C5.36051 20.6917 5.67651 20.8027 5.99151 20.9127C4.74951 22.5827 3.62751 24.3827 3.05851 26.3847C2.48951 28.3867 2.52151 30.6247 3.50451 32.4587C3.80551 32.2637 4.10752 32.0687 4.40852 31.8737C5.04552 35.0807 5.44051 38.3357 5.58951 41.6027C7.30051 40.8657 8.84951 39.7567 10.0985 38.3747C11.1185 37.2467 11.9325 35.9497 12.6795 34.6267C15.9925 28.7577 18.0985 22.2277 21.8405 16.6217C22.7095 15.3197 23.6685 14.0647 24.3375 12.6487C25.3085 10.5917 25.8955 7.92171 22.9545 8.04671C20.3305 8.15771 17.6605 9.26171 15.3905 10.5147Z" fill="#406807"/>
<path d="M31.5582 25.9686C31.3082 28.5836 30.8792 31.5256 28.7512 33.0656C28.2442 33.4326 27.6692 33.6926 27.1402 34.0266C25.0402 35.3506 23.6112 37.8396 21.1842 38.3606C20.4412 36.0806 20.7582 33.5817 21.4242 31.2777C22.0902 28.9737 23.0932 26.7776 23.7422 24.4686C24.3652 22.2536 25.4952 10.0106 29.4702 11.2176C31.4102 11.8066 31.7032 16.2817 31.8312 17.9077C32.0422 20.5937 31.8142 23.2956 31.5582 25.9686Z" fill="#4F8403"/>
<path d="M33.2389 0.0186985C32.2489 0.149698 29.8589 3.9007 29.1429 4.7157C27.5649 6.5127 25.9929 8.3377 24.5809 10.2737C23.9279 10.1147 22.4909 10.4647 21.9499 10.4737C19.8199 10.5067 17.6789 10.3147 15.5649 10.6707C12.4549 11.1947 9.56192 12.9197 7.62492 15.4087C12.2109 11.9347 18.2109 10.3877 23.9049 11.2097C23.9089 11.2107 23.9129 11.2097 23.9169 11.2107C23.0759 12.4377 22.3039 13.7127 21.6539 15.0617C21.2669 15.8637 20.9279 16.6877 20.6039 17.5177C19.2339 17.7507 17.1739 19.0547 16.2839 19.4117C12.8049 20.8067 9.27592 22.2287 6.30392 24.5137C3.33192 26.7987 0.935914 30.0957 0.586914 33.8287C1.55891 29.9887 4.24192 26.7377 7.48292 24.4607C10.7239 22.1837 14.5029 20.7937 18.3129 19.7127C18.8509 19.5607 19.4549 19.3757 19.9999 19.1047C19.7819 19.6927 19.5649 20.2807 19.3409 20.8657C17.6919 25.1837 15.6539 29.3317 13.3689 33.3497C12.8609 33.2187 12.1069 33.3247 11.7559 33.2267C11.2409 33.0827 10.7569 32.8067 10.2229 32.7767C9.77492 32.7517 9.33592 32.9037 8.88792 32.9397C8.00092 33.0117 7.09192 32.6307 6.23392 32.8697C5.69892 33.0187 5.25691 33.3917 4.86491 33.7847C3.78891 34.8617 2.93991 36.1657 2.39191 37.5857C3.28791 36.7957 4.18292 36.0057 5.07892 35.2157C5.63492 34.7247 6.20192 34.2267 6.87592 33.9157C8.52992 33.1507 10.4809 33.6437 12.1739 34.3197C12.2969 34.3687 12.5039 34.4177 12.7329 34.4467C10.4709 38.3247 7.99092 42.0857 5.39992 45.7507C9.96392 41.3787 13.7679 36.2157 16.5909 30.5607C16.7729 30.1967 16.9479 29.8267 17.1229 29.4577C17.5159 30.0417 18.2329 30.6727 18.5429 31.2217C19.4399 32.8097 19.9299 34.6327 19.9119 36.4587C19.9049 37.1997 19.8069 37.9477 19.6189 38.6677C19.6519 38.5977 19.6919 38.5307 19.7249 38.4607C20.0399 37.7787 20.3259 37.0767 20.4639 36.3387C20.8639 34.1927 19.9689 32.0177 18.8719 30.1307C18.4729 29.4457 18.0489 28.7467 17.7959 28.0037C18.5469 26.3357 19.2559 24.6357 19.9679 22.9397C19.9889 22.9887 20.0099 23.0377 20.0259 23.0657C20.4409 23.7817 21.4719 24.4047 21.9879 25.1227C23.0849 26.6487 23.8009 28.4227 24.4919 30.1577C25.0079 31.4547 25.5309 32.7787 25.6129 34.1717C25.9339 32.4917 25.3579 30.7837 24.7909 29.1697C24.5009 28.3437 24.2099 27.5167 23.9199 26.6907C23.6969 26.0547 23.4709 25.4137 23.1249 24.8347C22.8349 24.3487 22.4659 23.9157 22.0979 23.4847C21.6429 22.9507 21.1879 22.4177 20.7319 21.8837C20.6639 21.8037 20.5889 21.7287 20.5009 21.6737C21.9239 18.3227 23.4239 15.0317 25.3899 12.0937C25.4399 12.2277 25.4949 12.3577 25.5589 12.4747C26.2459 13.7287 27.7489 14.7477 28.5639 15.9967C29.4129 17.2967 30.0799 18.7187 30.5009 20.2147C31.4359 23.5367 31.1569 27.0637 30.8689 30.5017C31.0429 28.4497 31.2159 26.3977 31.3899 24.3467C31.4629 23.4857 31.5359 22.6217 31.4779 21.7607C31.3219 19.4197 30.2179 17.2497 28.9839 15.2537C28.4099 14.3257 27.1929 11.7467 26.1409 11.0157C27.1359 9.6597 28.2459 8.3907 29.5189 7.2447C30.7879 6.1017 32.2029 5.0967 33.2479 3.7467C33.8379 2.9837 35.4569 -0.275302 33.2389 0.0186985Z" fill="#6FA200"/>
<path d="M19.6193 38.6647C19.0743 39.8177 18.4483 40.9337 17.7363 41.9917C18.6753 41.0977 19.2893 39.9247 19.6193 38.6647Z" fill="#6FA200"/>
<path d="M48.143 57.0699C54.181 59.6999 61.912 57.6049 65.796 52.2859C69.993 46.5389 69.533 38.5599 72.854 32.2659C70.941 35.7839 66.871 37.6349 62.902 38.1729C58.934 38.7099 39.886 38.6699 39.416 44.3249C38.986 49.4969 43.702 55.1359 48.143 57.0699Z" fill="#D28F9B"/>
<path d="M48.1434 57.0699C54.1814 59.6999 61.9124 57.6049 65.7964 52.2859C69.9934 46.5389 69.5334 38.5599 72.8544 32.2659C70.9414 35.7839 66.8714 37.6349 62.9024 38.1729C58.9344 38.7099 58.3634 38.2699 54.3594 38.2719C49.2454 38.2749 38.9704 39.9629 39.4164 44.3249C39.9434 49.4879 43.7024 55.1359 48.1434 57.0699Z" fill="#D28F9B"/>
<path d="M67.4478 47.7478C62.8998 53.9748 53.8488 56.4269 46.7798 53.3479C44.2928 52.2649 41.7398 50.1838 39.7998 47.6508C40.9928 51.7288 44.6478 55.5468 48.1418 57.0688C54.1798 59.6988 61.9108 57.6039 65.7948 52.2849C67.3128 50.2059 68.2188 47.8329 68.9178 45.3549C68.4858 46.1809 68.0058 46.9828 67.4478 47.7478Z" fill="#F9CBC7"/>
<path d="M45.0492 47.3599C46.4332 48.6729 48.4262 49.1199 50.3292 49.2439C55.3742 49.5729 60.5222 47.9429 64.4572 44.7679C65.7222 43.7479 66.9122 42.4919 67.2902 40.9119C67.3742 40.5619 67.4012 40.1499 67.1582 39.8839C67.0242 39.7369 66.8292 39.6619 66.6372 39.6099C64.9092 39.1419 63.1672 40.1759 61.4012 40.4749C59.8572 40.7359 58.2832 40.4279 56.7332 40.2019C54.6462 39.8969 52.5382 39.7389 50.4292 39.7309C46.4542 39.7149 40.2752 42.8299 45.0492 47.3599Z" fill="#E9ACBA"/>
<path d="M39.6571 42.2129C40.0721 41.7959 40.7461 41.6619 41.2891 41.8879C42.3761 44.3199 42.9051 46.9989 42.8241 49.6609C42.8151 49.9439 42.7881 50.2559 42.5871 50.4549C42.1861 50.8519 41.5061 50.4889 41.1321 50.0669C39.9091 48.6859 39.5031 46.7859 39.1411 44.9769C39.0151 44.3499 38.8901 43.6989 39.0371 43.0759C39.1841 42.4529 39.6851 41.8659 40.3231 41.8339" fill="#EEBC9D"/>
<path d="M43.3564 47.2309C44.3694 48.6199 45.6624 49.8079 47.2154 50.5009C47.9874 50.8529 48.7994 51.1159 49.6234 51.3469C50.4484 51.5769 51.2804 51.8059 52.1084 51.9569C55.4374 52.5679 58.9554 52.0799 61.9384 50.5629C63.4234 49.8039 64.7914 48.8219 65.8754 47.5889C67.0164 46.3899 67.6034 44.8179 68.1694 43.1939C69.2704 39.9369 70.4254 36.6559 71.8484 33.5089L71.9414 33.5449C70.8444 36.8239 69.8994 40.1189 68.9334 43.4449C68.6754 44.2739 68.4074 45.1069 68.0474 45.9269C67.6914 46.7499 67.2074 47.5419 66.6384 48.2399C65.4794 49.6369 63.9714 50.6929 62.3534 51.4279C59.1104 52.8969 55.4284 53.2809 51.9914 52.5369C50.2824 52.1239 48.6314 51.6219 47.0534 50.8289C45.4784 50.0269 44.2164 48.7319 43.2744 47.2889L43.3564 47.2309Z" fill="#A7666F"/>
<path d="M46.2002 48.1399C48.6582 49.1349 51.3512 49.3199 53.9232 48.9479C56.4982 48.5799 59.0052 47.6469 61.2272 46.3789C63.4102 45.0599 65.2692 43.1969 66.9292 41.1859C68.5732 39.1519 70.0292 36.9499 71.4002 34.6799L71.4892 34.7249C70.4572 37.1709 69.1972 39.5459 67.6032 41.7079C66.0192 43.8599 64.1392 45.9009 61.7202 47.2459C59.2832 48.4869 56.6752 49.2579 53.9912 49.5319C51.3142 49.8039 48.5602 49.3809 46.1582 48.2309L46.2002 48.1399Z" fill="#A7666F"/>
<path d="M43.4561 44.0609C43.7581 44.1389 44.0542 44.2149 44.3782 44.2109C44.6932 44.2359 45.0092 44.2449 45.3282 44.2259C45.9642 44.2209 46.5981 44.1629 47.2321 44.1049C48.4991 43.9809 49.7582 43.7819 51.0102 43.5549C53.5132 43.0969 55.9821 42.4579 58.3831 41.6469C60.7881 40.8399 63.0902 39.7779 65.2962 38.5869C67.5192 37.4159 69.5872 35.9789 71.4062 34.1679L71.4852 34.2299C70.0952 36.4289 67.9922 38.0959 65.7912 39.4569C63.5612 40.8119 61.0982 41.6949 58.6262 42.4099C56.1532 43.1389 53.6331 43.6859 51.0901 44.0489C49.8151 44.2129 48.5382 44.3469 47.2542 44.4049C46.6122 44.4289 45.9711 44.4549 45.3271 44.4259C45.0061 44.4289 44.6842 44.4019 44.3632 44.3599C44.0422 44.3479 43.7222 44.2519 43.4102 44.1489L43.4561 44.0609Z" fill="#A7666F"/>
<path d="M40.3135 41.7859C46.0045 40.5269 51.8515 40.2429 57.5385 39.2159C60.3795 38.6989 63.1735 37.9799 65.8305 36.9789C68.4905 35.9959 70.9785 34.5079 72.8125 32.2399L72.8965 32.2939C71.5205 34.9329 68.8965 36.7339 66.2075 37.9049C63.4725 39.0769 60.5485 39.5909 57.6655 40.0049C54.7735 40.4189 51.8735 40.6609 48.9805 40.9099C46.0875 41.1489 43.1925 41.3739 40.3355 41.8829L40.3135 41.7859Z" fill="#A7666F"/>
</svg>
