<svg width="53" height="68" viewBox="0 0 53 68" fill="none" xmlns="http://www.w3.org/2000/svg">
<path d="M31.8589 18.3844C32.0939 18.9114 31.9359 19.5234 31.7649 20.0744C31.3309 21.4704 30.8299 22.8444 30.2639 24.1924C31.9819 22.7564 33.6999 21.3194 35.4179 19.8834C35.5709 20.6304 35.7229 21.3784 35.8759 22.1254C36.7989 21.0584 37.7219 19.9914 38.6439 18.9244C38.3609 21.0224 37.4969 22.9924 36.9629 25.0404C36.4289 27.0884 36.2579 29.3774 37.2899 31.2254C37.5299 30.8714 37.7689 30.5174 38.0089 30.1644C39.2069 32.0634 39.4779 34.5174 38.7229 36.6314C40.9709 33.7714 42.5539 30.3904 43.3099 26.8324C44.0219 27.6324 44.5959 28.5564 44.9989 29.5494C46.0979 26.0514 43.9449 22.2284 44.7199 18.6444C45.3849 20.4224 46.4269 22.0594 47.7569 23.4144C47.7389 23.0114 47.7209 22.6084 47.7019 22.2054C48.5229 23.6074 49.5179 24.9084 50.6549 26.0684C50.2319 23.2824 49.3989 20.5574 48.1919 18.0104C49.3199 19.2514 50.6869 20.2754 52.1969 21.0064C51.4239 18.1514 48.9259 11.4334 45.8079 10.2754C45.6439 10.2144 45.4589 10.1764 45.2629 10.1494C46.1319 7.62742 46.6909 3.91942 46.9249 2.17142C47.0029 1.58742 47.0739 0.960426 46.8009 0.438426C46.5279 -0.0835739 46.2899 -0.137579 45.8619 0.266421C45.8619 0.266421 45.8349 1.72542 45.7619 2.61742C45.5449 5.25942 44.5449 7.71943 43.8359 10.1674C41.3129 10.4794 37.8209 11.9954 36.0609 12.6704C33.5459 13.6364 31.1049 15.4414 30.4639 18.0574C30.8049 17.5934 31.6229 17.8574 31.8589 18.3844Z" fill="#0F7700"/>
<path d="M44.409 13.6554C45.275 15.7044 46.141 17.7534 47.006 19.8024C46.417 17.1504 45.264 14.6254 43.646 12.4434C42.036 13.2834 40.423 14.1254 38.89 15.1004C37.109 16.2324 35.346 17.6724 34.728 19.6904C36.475 17.4324 38.346 15.0774 40.992 14.0034C41.785 13.6814 42.623 13.4874 43.435 13.2204C42.942 17.4554 42.087 21.6474 40.883 25.7374C40.561 26.8304 40.12 28.0864 40.387 29.2304C41.07 28.7484 41.166 26.6204 41.358 25.7844C41.666 24.4404 41.983 23.0994 42.31 21.7594C42.972 19.0494 43.671 16.3474 44.409 13.6554Z" fill="#529D22"/>
<path d="M12.247 47.6154C11.912 48.0854 11.305 48.2594 10.743 48.3904C9.32 48.7234 7.881 48.9884 6.432 49.1844C8.541 49.9374 10.65 50.6894 12.759 51.4424C12.192 51.9524 11.625 52.4634 11.059 52.9734C12.446 53.2284 13.834 53.4824 15.221 53.7364C13.269 54.5564 11.133 54.8094 9.097 55.3884C7.061 55.9674 5.001 56.9794 3.932 58.8064C4.358 58.8334 4.785 58.8614 5.212 58.8884C4.183 60.8834 2.205 62.3614 0 62.7824C3.605 63.2704 7.321 62.9204 10.772 61.7684C10.443 62.7884 9.939 63.7514 9.287 64.6014C12.86 63.7754 15.063 59.9814 18.545 58.8324C17.35 60.3074 16.468 62.0354 15.973 63.8684C16.311 63.6484 16.649 63.4284 16.987 63.2084C16.195 64.6274 15.578 66.1434 15.155 67.7124C17.342 65.9344 19.268 63.8364 20.852 61.5044C20.354 63.1064 20.165 64.8034 20.299 66.4754C22.367 64.3614 26.892 58.8024 26.309 55.5284C26.278 55.3564 26.217 55.1774 26.142 54.9944C28.757 54.4644 32.236 53.0674 33.861 52.3824C34.404 52.1534 34.98 51.8974 35.292 51.3974C35.603 50.8974 35.529 50.6644 34.964 50.5014C34.964 50.5014 33.692 51.2174 32.887 51.6064C30.499 52.7594 27.873 53.1444 25.403 53.7734C23.855 51.7564 20.778 49.5154 19.303 48.3404C17.195 46.6624 14.403 45.4734 11.822 46.2474C12.395 46.3064 12.582 47.1454 12.247 47.6154Z" fill="#5D9541"/>
<path d="M22.6861 56.0364C21.3591 57.8214 20.0321 59.6064 18.7051 61.3914C20.6931 59.5394 22.2851 57.2654 23.3451 54.7644C21.8041 53.8024 20.2611 52.8394 18.6441 52.0124C16.7651 51.0514 14.6301 50.2614 12.5771 50.7524C15.4091 51.1134 18.3881 51.5324 20.6551 53.2684C21.3341 53.7884 21.9261 54.4124 22.5691 54.9774C18.6691 56.6994 14.6221 58.0874 10.4861 59.1234C9.38112 59.4004 8.07512 59.6564 7.22412 60.4664C7.98612 60.8104 9.86912 59.8144 10.6861 59.5564C12.0001 59.1404 13.3181 58.7334 14.6381 58.3364C17.3091 57.5314 19.9921 56.7644 22.6861 56.0364Z" fill="#037800"/>
</svg>
