<svg width="69" height="63" viewBox="0 0 69 63" fill="none" xmlns="http://www.w3.org/2000/svg">
<path d="M54.8223 53.4302C55.6993 49.4342 54.1973 45.2582 51.9783 41.8202C57.4903 40.6562 62.8363 37.8062 65.9983 33.1432C69.1603 28.4802 69.7013 21.8672 66.4543 17.2632C63.1923 12.6382 57.1113 10.9642 51.4643 10.5812C45.7313 10.1922 41.7823 11.9362 36.8933 14.3072C33.4853 8.01723 30.3723 0.502231 21.9463 0.0182308C16.8013 -0.277769 11.6503 3.06024 9.81829 7.87724C7.98629 12.6942 9.6163 18.6112 13.6573 21.8092C11.1843 20.9422 8.50429 22.4152 6.56329 24.1752C2.41229 27.9382 -0.254705 33.4712 0.0192954 39.0672C0.293295 44.6632 3.75529 50.1382 8.94529 52.2482C14.1353 54.3592 20.7873 52.5972 23.8063 47.8772C26.5013 54.3332 31.4543 60.2992 38.2053 62.1352C44.9553 63.9722 53.3223 60.2632 54.8223 53.4302ZM36.7393 54.3582C31.6733 52.9802 27.9563 48.5032 25.9343 43.6592C23.6693 47.2012 18.6773 48.5232 14.7823 46.9392C10.8873 45.3552 8.29029 41.2472 8.08429 37.0482C7.87829 32.8492 9.88029 28.6972 12.9953 25.8732C14.4523 24.5522 16.4633 23.4472 18.3183 24.0982C15.2853 21.6982 14.0623 17.2582 15.4373 13.6432C16.8123 10.0282 20.6773 7.52423 24.5383 7.74623C30.8613 8.10923 33.1973 13.7482 35.7553 18.4682C39.4243 16.6892 42.3873 15.3812 46.6893 15.6722C50.9263 15.9592 55.4903 17.2152 57.9373 20.6862C60.3733 24.1412 59.9673 29.1032 57.5953 32.6022C55.2223 36.1012 51.2113 38.2402 47.0753 39.1132C48.7403 41.6922 49.8673 44.8262 49.2093 47.8252C48.0833 52.9522 41.8053 55.7352 36.7393 54.3582Z" fill="#AB7B3B"/>
<path d="M50.1193 40.7942C55.1093 39.7402 59.9493 37.1602 62.8123 32.9382C65.6753 28.7162 66.1653 22.7292 63.2253 18.5612C60.2723 14.3732 54.7663 12.8582 49.6533 12.5112C44.4623 12.1592 40.8873 13.7382 36.4613 15.8842C33.3753 10.1892 30.5573 3.3862 22.9283 2.9472C18.2693 2.6792 13.6073 5.70122 11.9483 10.0622C10.2893 14.4232 11.7653 19.7802 15.4233 22.6762C13.1843 21.8912 10.7583 23.2242 9.00031 24.8182C5.24231 28.2252 2.82732 33.2352 3.07532 38.3012C3.32332 43.3682 6.45732 48.3242 11.1563 50.2352C15.8553 52.1462 21.8783 50.5512 24.6113 46.2782C27.0513 52.1232 31.5363 57.5252 37.6483 59.1872C43.7603 60.8492 51.3343 57.4902 52.6923 51.3042C53.4883 47.6872 52.1283 43.9062 50.1193 40.7942ZM37.0033 55.7562C31.6353 54.2962 27.6953 49.5512 25.5523 44.4172C23.1513 48.1712 17.8613 49.5712 13.7333 47.8932C9.60632 46.2142 6.85332 41.8612 6.63532 37.4102C6.41732 32.9602 8.53832 28.5592 11.8393 25.5672C13.3833 24.1672 15.5143 22.9962 17.4813 23.6862C14.2673 21.1422 12.9713 16.4372 14.4283 12.6062C15.8853 8.77523 19.9813 6.12123 24.0733 6.35623C30.7743 6.74123 33.2503 12.7172 35.9603 17.7192C39.8483 15.8342 42.9883 14.4472 47.5483 14.7562C52.0393 15.0602 56.8753 16.3912 59.4693 20.0702C62.0513 23.7312 61.6213 28.9912 59.1063 32.6992C56.5913 36.4072 52.3403 38.6742 47.9573 39.5992C49.7213 42.3322 50.9163 45.6542 50.2183 48.8322C49.0253 54.2662 42.3713 57.2162 37.0033 55.7562Z" fill="#FFB400"/>
<path d="M54.8223 53.4302C55.6993 49.4342 54.1973 45.2582 51.9783 41.8202C57.4903 40.6562 62.8363 37.8062 65.9983 33.1432C69.1603 28.4802 69.7013 21.8672 66.4543 17.2632C63.1923 12.6382 57.1113 10.9642 51.4643 10.5812C45.7313 10.1922 41.7823 11.9362 36.8933 14.3072C33.4853 8.01723 30.3723 0.502231 21.9463 0.0182308C16.8013 -0.277769 11.6503 3.06024 9.81829 7.87724C7.98629 12.6942 9.6163 18.6112 13.6573 21.8092C11.1843 20.9422 8.50429 22.4152 6.56329 24.1752C2.41229 27.9382 -0.254705 33.4712 0.0192954 39.0672C0.293295 44.6632 3.75529 50.1382 8.94529 52.2482C14.1353 54.3592 20.7873 52.5972 23.8063 47.8772C26.5013 54.3332 31.4543 60.2992 38.2053 62.1352C44.9553 63.9722 53.3223 60.2632 54.8223 53.4302ZM37.6493 59.1882C31.5373 57.5262 27.0523 52.1242 24.6123 46.2792C21.8793 50.5522 15.8563 52.1472 11.1573 50.2362C6.4583 48.3252 3.32429 43.3692 3.07629 38.3022C2.82829 33.2352 5.2433 28.2262 9.0013 24.8192C10.7583 23.2252 13.1853 21.8922 15.4243 22.6772C11.7653 19.7812 10.2903 14.4242 11.9493 10.0632C13.6083 5.70224 18.2713 2.68022 22.9293 2.94822C30.5583 3.38622 33.3763 10.1902 36.4623 15.8852C40.8893 13.7392 44.4633 12.1602 49.6543 12.5122C54.7663 12.8582 60.2723 14.3742 63.2263 18.5622C66.1653 22.7302 65.6763 28.7182 62.8133 32.9392C59.9503 37.1602 55.1103 39.7412 50.1203 40.7952C52.1293 43.9072 53.4883 47.6882 52.6943 51.3062C51.3363 57.4912 43.7613 60.8502 37.6493 59.1882Z" fill="#F69800"/>
<path d="M15.3573 4.67619C13.4333 6.66719 12.4833 9.47121 12.4133 12.2392C13.0563 9.27821 15.3003 6.8092 18.0223 5.4792C20.8243 4.1102 23.7893 4.03622 26.8283 4.20522C23.3083 1.22122 18.6543 1.26419 15.3573 4.67619Z" fill="white"/>
</svg>
