<svg width="294" height="235" viewBox="0 0 294 235" fill="none" xmlns="http://www.w3.org/2000/svg">
<g clip-path="url(#clip0_18230_3038)">
<path d="M116.496 83.8529C117.579 83.903 118.39 84.166 118.927 84.6415C119.465 85.1169 119.733 85.8522 119.733 86.8477C119.733 87.5167 119.661 88.0957 119.515 88.5846C119.368 89.0739 119.183 89.4886 118.96 89.8292C118.737 90.1697 118.495 90.4446 118.236 90.655C117.976 90.8648 117.734 91.0292 117.511 91.1467C117.288 91.2643 117.027 91.3631 116.727 91.4435C116.99 91.4072 117.275 91.3839 117.583 91.3726C117.89 91.3611 118.194 91.3766 118.494 91.4187C118.794 91.4609 119.083 91.5347 119.361 91.6404C119.639 91.7467 119.882 91.902 120.091 92.1064C120.299 92.3114 120.467 92.5683 120.596 92.8781C120.723 93.1877 120.787 93.5655 120.787 94.0114C120.787 94.6799 120.703 95.3186 120.535 95.9275C120.367 96.5353 120.068 97.0917 119.641 97.5939C119.213 98.0973 118.636 98.5374 117.912 98.9155C117.188 99.2942 116.266 99.5914 115.146 99.8087L103.173 102.13V97.6824L104.489 97.1706V90.4495L103.173 90.4486V86.4359L116.496 83.8529ZM114.18 89.184C114.18 88.805 114.121 88.525 113.999 88.3444C113.879 88.1632 113.717 88.0441 113.517 87.9861C113.315 87.9291 113.089 87.9167 112.836 87.9509C112.583 87.9851 112.326 88.0273 112.063 88.0784L111.097 88.2655V91.4311L112.063 91.244C112.326 91.193 112.583 91.1343 112.836 91.0664C113.089 90.999 113.315 90.8958 113.517 90.7563C113.717 90.6173 113.879 90.4243 113.999 90.1777C114.121 89.9309 114.18 89.6004 114.18 89.184ZM114.18 94.5232C114.18 94.144 114.121 93.8656 113.999 93.689C113.879 93.5114 113.717 93.3941 113.517 93.3362C113.315 93.2791 113.089 93.2672 112.836 93.3008C112.583 93.3356 112.326 93.3777 112.063 93.4289L111.097 93.616V96.7809L112.063 96.594C112.326 96.5429 112.583 96.4839 112.836 96.4163C113.089 96.3488 113.315 96.2441 113.517 96.1007C113.717 95.9578 113.879 95.7634 113.999 95.5161C114.121 95.2699 114.18 94.9395 114.18 94.5232Z" fill="white"/>
<path d="M139.79 83.9854C139.782 84.2102 139.779 84.4281 139.779 84.6396C139.779 84.8519 139.779 85.0545 139.779 85.247V86.9749C139.779 88.4616 139.577 89.7727 139.176 90.9096C138.773 92.0464 138.228 93.0197 137.54 93.8291C136.852 94.6389 136.046 95.2707 135.12 95.7247C134.195 96.1793 133.212 96.5073 132.174 96.7083C130.973 96.9411 129.852 97.021 128.809 96.948C127.767 96.8755 126.86 96.5738 126.088 96.0434C125.315 95.5134 124.708 94.7635 124.266 93.7939C123.823 92.8248 123.602 91.5976 123.602 90.1113V87.1239L122.285 87.1229V82.7312L130.856 81.0698V85.4615L129.54 85.9726V87.2991C129.54 87.4777 129.54 87.6579 129.54 87.84C129.54 88.0221 129.542 88.1909 129.545 88.3456C129.549 88.5015 129.551 88.6364 129.551 88.7516C129.551 88.8671 129.551 88.9432 129.551 88.9804C129.551 89.1511 129.554 89.3495 129.562 89.5744C129.569 89.7997 129.598 90.0279 129.65 90.2593C129.7 90.491 129.779 90.7138 129.885 90.9273C129.992 91.1411 130.141 91.3218 130.335 91.4697C130.53 91.618 130.774 91.7212 131.071 91.7789C131.367 91.8364 131.734 91.823 132.174 91.7376C132.612 91.6528 132.984 91.5234 133.287 91.3491C133.591 91.1754 133.84 90.975 134.034 90.7476C134.227 90.5204 134.379 90.2777 134.489 90.0183C134.599 89.7592 134.677 89.5042 134.725 89.254C134.773 89.0029 134.802 88.7632 134.813 88.5339C134.824 88.3057 134.829 88.1056 134.829 87.9349C134.829 87.8829 134.829 87.7994 134.829 87.684C134.829 87.5687 134.827 87.4357 134.824 87.284C134.82 87.1322 134.818 86.9694 134.818 86.7947C134.818 86.62 134.818 86.4473 134.818 86.276V84.9495L133.501 84.9491V80.5574L141.118 79.0804V83.4722L139.79 83.9854Z" fill="white"/>
<path d="M147.5 93.5371V89.1121L148.816 88.5221L144.284 83.1036L142.616 83.1815V78.7898L151.429 77.0816V81.4733L150.397 81.9185L152.494 84.7331L154.578 81.108L153.547 81.0629V76.6711L162.349 74.9645V79.3562L160.691 79.9229L156.159 87.0986L157.486 87.176V91.601L147.5 93.5371Z" fill="white"/>
<path d="M169.1 75.0773L188.761 69.238V98.1496L192.038 98.1641V108.538L169.1 112.984V102.61L172.377 101.326V85.7258L169.1 86.361L169.1 75.0773Z" fill="white"/>
<path d="M101.962 116.358C101.962 114.58 102.227 112.994 102.758 111.6C103.288 110.207 104.043 108.997 105.021 107.971C105.998 106.944 107.178 106.096 108.561 105.427C109.944 104.757 111.487 104.256 113.191 103.926C114.225 103.726 115.158 103.597 115.991 103.539C116.824 103.482 117.574 103.469 118.24 103.501C118.905 103.532 119.493 103.596 120 103.692C120.507 103.786 120.956 103.887 121.347 103.99V110.16L117.395 110.926C117.181 110.656 116.97 110.425 116.76 110.234C116.55 110.043 116.325 109.898 116.082 109.798C115.84 109.699 115.57 109.64 115.272 109.622C114.975 109.604 114.625 109.634 114.225 109.712C113.74 109.805 113.268 109.97 112.807 110.206C112.346 110.442 111.936 110.763 111.578 111.168C111.219 111.572 110.931 112.068 110.712 112.655C110.493 113.241 110.384 113.931 110.384 114.726C110.384 115.652 110.473 116.394 110.649 116.95C110.826 117.507 111.082 117.925 111.417 118.206C111.753 118.486 112.165 118.645 112.653 118.682C113.143 118.72 113.703 118.677 114.336 118.555C114.672 118.49 115.018 118.399 115.377 118.282C115.735 118.165 116.124 118 116.544 117.786V116.17L113.736 116.713V113.224L121.906 111.641V121.059C121.217 121.485 120.486 121.902 119.714 122.306C118.941 122.712 118.165 123.084 117.388 123.424C116.61 123.764 115.849 124.035 115.104 124.236C114.359 124.437 113.67 124.598 113.037 124.721C111.482 125.023 110.03 125.115 108.68 124.998C107.33 124.882 106.157 124.481 105.16 123.795C104.164 123.108 103.382 122.152 102.814 120.923C102.246 119.695 101.962 118.174 101.962 116.358Z" fill="white"/>
<path d="M134.887 109.039L138.756 107.453V111.495L134.887 111.394V114.529C135.446 114.42 135.986 114.275 136.507 114.094C137.029 113.913 137.513 113.708 137.96 113.479C138.406 113.251 138.816 113.006 139.189 112.744C139.561 112.483 139.883 112.217 140.152 111.947L142.066 111.577V118.839L124.803 122.185V116.525L126.479 115.875V107.832L124.803 107.831V102.214L142.066 98.8677V106.13L140.152 106.501C139.883 106.346 139.561 106.21 139.189 106.092C138.816 105.975 138.406 105.889 137.96 105.834C137.513 105.779 137.029 105.759 136.507 105.775C135.986 105.791 135.446 105.853 134.887 105.961V109.039Z" fill="white"/>
<path d="M149.684 102.668C149.2 102.762 148.771 102.911 148.399 103.115C148.027 103.32 147.715 103.546 147.463 103.793C147.211 104.04 147.021 104.293 146.891 104.55C146.76 104.807 146.696 105.034 146.696 105.233L144.363 105.685V98.4226L163.413 94.73V101.992L161.08 102.445C161.08 102.246 161.016 102.043 160.885 101.837C160.755 101.63 160.564 101.452 160.313 101.303C160.061 101.152 159.749 101.048 159.377 100.987C159.004 100.927 158.575 100.944 158.092 101.038V109.747L159.767 109.748V115.408L148.007 117.687V112.028L149.684 111.377V102.668H149.684Z" fill="white"/>
<path d="M113.883 138.362L117.774 136.697V141.406L113.883 141.233V143.565L115.707 143.612V149.726L102.908 152.206V146.047L104.732 145.338V136.586L102.908 136.584V130.471L120.587 127.044V134.948L118.048 135.44C117.612 135.061 117.039 134.774 116.33 134.577C115.621 134.38 114.805 134.371 113.883 134.549V138.362Z" fill="white"/>
<path d="M147.376 143.587L138.286 145.349C138.002 144.869 137.709 144.357 137.404 143.814C137.1 143.271 136.806 142.697 136.523 142.093C136.239 141.49 135.973 140.862 135.724 140.211C135.476 139.559 135.266 138.879 135.094 138.172L134.592 138.269V146.064L123.618 148.192V142.032L125.442 141.324V132.54L123.618 132.539V126.457L136.067 124.044C137.718 123.724 139.145 123.519 140.346 123.43C141.546 123.342 142.565 123.355 143.4 123.471C144.236 123.587 144.913 123.793 145.43 124.089C145.947 124.385 146.349 124.755 146.638 125.197C146.926 125.641 147.122 126.151 147.223 126.728C147.325 127.305 147.375 127.929 147.375 128.598C147.375 129.277 147.312 129.907 147.185 130.487C147.059 131.067 146.833 131.62 146.509 132.146C146.185 132.672 145.742 133.183 145.179 133.678C144.617 134.173 143.9 134.674 143.028 135.183C143.211 135.518 143.482 135.905 143.841 136.345C144.2 136.785 144.594 137.229 145.019 137.676C145.445 138.124 145.868 138.554 146.288 138.966C146.709 139.379 147.072 139.73 147.375 140.021V143.587H147.376ZM134.592 134.086C135.149 133.978 135.654 133.852 136.105 133.708C136.556 133.564 136.941 133.366 137.26 133.113C137.579 132.861 137.825 132.533 137.997 132.129C138.17 131.725 138.255 131.209 138.255 130.582C138.255 129.964 138.17 129.486 137.997 129.15C137.825 128.813 137.579 128.575 137.26 128.436C136.941 128.297 136.556 128.241 136.105 128.266C135.654 128.292 135.149 128.358 134.592 128.467V134.086Z" fill="white"/>
<path d="M161.837 128.604L166.048 126.877V131.276L161.837 131.166V134.578C162.446 134.46 163.033 134.303 163.6 134.104C164.168 133.908 164.696 133.684 165.181 133.436C165.668 133.187 166.113 132.921 166.52 132.636C166.925 132.352 167.274 132.063 167.568 131.769L169.651 131.365V139.269L150.863 142.911V136.751L152.687 136.043V127.29L150.863 127.288V121.176L169.651 117.534V125.437L167.568 125.841C167.274 125.672 166.925 125.523 166.52 125.396C166.113 125.269 165.668 125.175 165.181 125.115C164.696 125.055 164.168 125.034 163.6 125.051C163.033 125.068 162.446 125.136 161.837 125.254V128.604Z" fill="white"/>
<path d="M183.976 124.312L188.186 122.586V126.985L183.976 126.875V130.287C184.583 130.169 185.172 130.011 185.739 129.813C186.307 129.616 186.833 129.393 187.32 129.144C187.806 128.895 188.252 128.629 188.657 128.345C189.062 128.061 189.412 127.771 189.706 127.478L191.789 127.074V134.978L173 138.619V132.46L174.824 131.752V122.999L173 122.997V116.884L191.789 113.243V121.146L189.706 121.55C189.412 121.381 189.062 121.232 188.657 121.105C188.252 120.978 187.806 120.884 187.32 120.823C186.833 120.763 186.307 120.742 185.739 120.76C185.172 120.777 184.583 120.845 183.976 120.962V124.312Z" fill="white"/>
<path d="M146.24 28.7312C101.023 28.7312 64.3662 65.3873 64.3662 110.605C64.3662 155.823 101.022 192.479 146.24 192.479C153.547 192.479 160.625 191.509 167.366 189.713L225.348 131.731C227.144 124.99 228.114 117.912 228.114 110.605C228.114 65.3873 191.458 28.7312 146.24 28.7312Z" fill="#EB1400"/>
<path d="M103.093 80.4628C104.333 80.3481 105.297 80.519 105.984 80.975C106.672 81.4309 107.094 82.2252 107.252 83.3581C107.358 84.1194 107.367 84.79 107.278 85.3695C107.189 85.9495 107.044 86.4509 106.844 86.8738C106.644 87.2966 106.412 87.6478 106.151 87.9283C105.888 88.2083 105.639 88.4336 105.404 88.6027C105.169 88.7719 104.887 88.9258 104.558 89.0648C104.852 88.9819 105.173 88.9101 105.522 88.8484C105.869 88.7868 106.218 88.7561 106.565 88.7566C106.913 88.7571 107.254 88.7954 107.587 88.8715C107.92 88.9484 108.221 89.0867 108.492 89.2862C108.761 89.4866 108.993 89.7523 109.188 90.0845C109.383 90.4166 109.515 90.8365 109.586 91.344C109.691 92.1048 109.698 92.8449 109.603 93.5646C109.507 94.2829 109.256 94.9634 108.849 95.6027C108.442 96.2433 107.855 96.8356 107.09 97.3807C106.327 97.9264 105.325 98.4107 104.085 98.8355L90.8266 103.374L90.1219 98.3126L91.5387 97.5216L90.4737 89.8726L88.9757 90.08L88.3399 85.5133L103.093 80.4628ZM101.302 86.8968C101.242 86.4655 101.13 86.1563 100.963 85.97C100.797 85.7829 100.595 85.673 100.358 85.6386C100.118 85.6058 99.8594 85.6274 99.577 85.7064C99.2946 85.7854 99.0079 85.8743 98.7168 85.9741L97.6475 86.34L98.1491 89.9427L99.2184 89.5768C99.5095 89.4771 99.7936 89.3695 100.071 89.2521C100.348 89.1353 100.589 88.982 100.796 88.7912C101.002 88.6014 101.155 88.3562 101.253 88.0565C101.352 87.7563 101.368 87.3707 101.302 86.8968ZM102.148 92.9732C102.088 92.5417 101.976 92.2343 101.809 92.0525C101.644 91.8695 101.442 91.7616 101.205 91.7274C100.966 91.6944 100.707 91.7167 100.425 91.7951C100.142 91.8747 99.8556 91.9635 99.5646 92.0634L98.4953 92.4293L98.9968 96.0312L100.066 95.6654C100.357 95.5657 100.641 95.4576 100.918 95.3406C101.195 95.2238 101.436 95.0688 101.643 94.8736C101.848 94.6792 102.001 94.4324 102.099 94.1319C102.198 93.8325 102.214 93.447 102.148 92.9732Z" fill="white"/>
<path d="M129.624 76.9226C129.651 77.1797 129.682 77.4281 129.715 77.6688C129.749 77.9105 129.781 78.141 129.812 78.3601L130.085 80.3265C130.321 82.0185 130.299 83.5426 130.022 84.9001C129.744 86.2578 129.278 87.4517 128.623 88.4819C127.969 89.5125 127.151 90.3593 126.169 91.0226C125.189 91.6866 124.122 92.2155 122.973 92.6088C121.643 93.064 120.38 93.3325 119.181 93.4148C117.983 93.4975 116.903 93.2978 115.941 92.8164C114.978 92.3357 114.168 91.5785 113.511 90.5451C112.854 89.5123 112.408 88.1507 112.172 86.4592L111.699 83.0593L110.2 83.2669L109.504 78.2688L118.995 75.02L119.691 80.0181L118.274 80.8083L118.484 82.3179C118.512 82.5211 118.541 82.7262 118.57 82.9335C118.598 83.1408 118.627 83.3325 118.655 83.5081C118.685 83.6849 118.708 83.8381 118.727 83.9692C118.745 84.1007 118.757 84.1872 118.763 84.2296C118.79 84.4239 118.825 84.6492 118.869 84.9039C118.913 85.1592 118.982 85.4144 119.078 85.6695C119.172 85.9251 119.297 86.1662 119.452 86.3923C119.607 86.6188 119.806 86.8007 120.05 86.9382C120.294 87.0763 120.59 87.1549 120.936 87.1736C121.282 87.1922 121.698 87.1188 122.185 86.9519C122.67 86.7859 123.072 86.5797 123.39 86.3333C123.708 86.0875 123.96 85.82 124.145 85.5305C124.329 85.2413 124.463 84.9409 124.547 84.6284C124.632 84.316 124.68 84.0135 124.694 83.7212C124.709 83.4278 124.705 83.1503 124.68 82.8877C124.658 82.6261 124.632 82.3977 124.604 82.2034C124.596 82.1442 124.583 82.0492 124.565 81.9178C124.546 81.7867 124.523 81.6356 124.496 81.4633C124.467 81.2912 124.439 81.1063 124.411 80.9075C124.384 80.7087 124.356 80.5121 124.329 80.3172L124.119 78.8075L122.62 79.0157L121.924 74.0177L130.359 71.1299L131.055 76.128L129.624 76.9226Z" fill="white"/>
<path d="M139.912 86.5715L139.211 81.5356L140.615 80.6556L134.599 75.207L132.713 75.56L132.017 70.562L141.776 67.2216L142.472 72.2197L141.368 72.8897L144.2 75.7607L145.998 71.3047L144.817 71.4168L144.122 66.4187L153.868 63.0818L154.564 68.0799L152.767 68.9875L148.747 77.872L150.269 77.7498L150.971 82.7857L139.912 86.5715Z" fill="white"/>
<path d="M161.569 62.1406L183.02 52.3798L187.601 85.2831L191.332 84.7805L192.976 96.5867L167.576 105.281L165.932 93.4752L169.458 91.4937L166.986 73.74L163.357 74.9822L161.569 62.1406Z" fill="white"/>
<path d="M91.7035 119.759C91.4217 117.735 91.472 115.888 91.8549 114.218C92.238 112.548 92.9052 111.052 93.8552 109.729C94.8053 108.406 96.0134 107.254 97.4812 106.272C98.9488 105.291 100.626 104.477 102.512 103.831C103.657 103.439 104.699 103.145 105.638 102.947C106.577 102.75 107.428 102.616 108.191 102.547C108.953 102.477 109.632 102.457 110.225 102.485C110.817 102.513 111.344 102.556 111.805 102.612L112.783 109.633L108.406 111.132C108.12 110.858 107.843 110.628 107.574 110.444C107.304 110.26 107.025 110.13 106.733 110.055C106.442 109.981 106.126 109.956 105.784 109.983C105.442 110.01 105.049 110.099 104.606 110.251C104.069 110.435 103.558 110.697 103.071 111.039C102.584 111.38 102.168 111.81 101.824 112.328C101.48 112.845 101.23 113.455 101.074 114.158C100.918 114.859 100.903 115.662 101.029 116.566C101.176 117.621 101.394 118.45 101.683 119.056C101.973 119.662 102.33 120.097 102.757 120.363C103.183 120.629 103.677 120.745 104.238 120.71C104.802 120.675 105.433 120.538 106.134 120.298C106.506 120.171 106.885 120.012 107.275 119.822C107.664 119.633 108.08 119.383 108.524 119.074L108.268 117.234L105.159 118.297L104.606 114.327L113.653 111.23L115.145 121.949C114.429 122.543 113.663 123.133 112.848 123.715C112.033 124.299 111.209 124.846 110.378 125.356C109.547 125.866 108.723 126.295 107.908 126.642C107.092 126.988 106.334 127.281 105.632 127.521C103.91 128.111 102.272 128.446 100.717 128.528C99.1623 128.609 97.7641 128.338 96.5211 127.715C95.2781 127.091 94.2371 126.127 93.3956 124.819C92.5552 123.512 91.9912 121.825 91.7035 119.759Z" fill="white"/>
<path d="M128.015 106.212L132.166 103.794L132.807 108.394L128.388 108.892L128.884 112.46C129.503 112.248 130.095 111.997 130.659 111.709C131.224 111.419 131.743 111.109 132.216 110.778C132.687 110.448 133.115 110.104 133.497 109.748C133.88 109.391 134.204 109.038 134.468 108.688L136.587 107.963L137.737 116.227L118.621 122.771L117.724 116.33L119.529 115.324L118.255 106.17L116.346 106.435L115.456 100.042L134.573 93.4989L135.724 101.764L133.605 102.489C133.273 102.355 132.886 102.251 132.443 102.177C132.001 102.102 131.521 102.07 131.004 102.078C130.487 102.086 129.932 102.14 129.341 102.241C128.751 102.341 128.145 102.498 127.527 102.71L128.015 106.212Z" fill="white"/>
<path d="M143.845 96.6167C143.308 96.8003 142.845 97.0382 142.453 97.3298C142.062 97.6215 141.743 97.9279 141.496 98.2495C141.248 98.5707 141.072 98.8877 140.964 99.2009C140.856 99.5141 140.819 99.783 140.85 100.009L138.267 100.894L137.116 92.6284L158.212 85.4075L159.362 93.6728L156.779 94.5568C156.748 94.3304 156.642 94.1103 156.461 93.8959C156.28 93.6816 156.034 93.5096 155.725 93.379C155.414 93.2477 155.043 93.1779 154.61 93.168C154.176 93.1592 153.691 93.2458 153.155 93.4293L154.535 103.341L156.442 103.077L157.339 109.518L144.317 113.975L143.42 107.534L145.225 106.528L143.845 96.6168L143.845 96.6167Z" fill="white"/>
<path d="M108.757 142.912L112.921 140.401L113.667 145.759L109.212 146.18L109.581 148.833L111.664 148.597L112.633 155.555L98.46 160.407L97.4841 153.397L99.4476 152.301L98.0607 142.34L95.9847 142.627L95.0161 135.671L114.592 128.969L115.845 137.965L113.033 138.927C112.477 138.564 111.78 138.328 110.942 138.216C110.103 138.104 109.174 138.224 108.153 138.573L108.757 142.912Z" fill="white"/>
<path d="M147.701 143.551L137.636 146.997C137.237 146.495 136.821 145.959 136.388 145.39C135.957 144.819 135.532 144.213 135.113 143.571C134.695 142.929 134.293 142.257 133.906 141.555C133.521 140.853 133.174 140.112 132.866 139.335L132.31 139.525L133.545 148.396L121.393 152.556L120.417 145.546L122.38 144.452L120.989 134.455L118.913 134.742L117.949 127.82L131.734 123.102C133.563 122.476 135.154 122.017 136.507 121.725C137.859 121.435 139.02 121.289 139.989 121.288C140.959 121.287 141.763 121.414 142.397 121.669C143.032 121.925 143.549 122.282 143.947 122.74C144.346 123.199 144.649 123.749 144.856 124.389C145.063 125.03 145.22 125.731 145.326 126.493C145.433 127.265 145.461 127.992 145.408 128.673C145.356 129.353 145.187 130.018 144.902 130.668C144.616 131.318 144.193 131.97 143.631 132.622C143.069 133.274 142.333 133.959 141.421 134.676C141.683 135.028 142.052 135.426 142.531 135.87C143.009 136.313 143.527 136.756 144.082 137.198C144.638 137.64 145.188 138.062 145.731 138.464C146.276 138.868 146.744 139.21 147.136 139.493L147.701 143.551L147.701 143.551ZM131.647 134.764C132.264 134.553 132.818 134.329 133.309 134.094C133.799 133.859 134.206 133.572 134.529 133.235C134.852 132.897 135.08 132.484 135.212 131.998C135.344 131.51 135.36 130.91 135.261 130.195C135.163 129.493 134.99 128.963 134.74 128.607C134.491 128.25 134.173 128.019 133.788 127.911C133.403 127.803 132.956 127.801 132.446 127.901C131.937 128.002 131.373 128.157 130.757 128.369L131.647 134.764Z" fill="white"/>
<path d="M161.786 124.208L166.304 121.575L167.001 126.582L162.192 127.124L162.732 131.007C163.406 130.777 164.049 130.504 164.664 130.189C165.279 129.875 165.844 129.537 166.357 129.177C166.872 128.817 167.336 128.444 167.753 128.055C168.17 127.667 168.521 127.283 168.809 126.902L171.115 126.113L172.368 135.108L151.563 142.229L150.587 135.219L152.551 134.124L151.164 124.163L149.088 124.45L148.12 117.493L168.924 110.371L170.176 119.366L167.87 120.156C167.509 120.01 167.088 119.896 166.606 119.815C166.124 119.735 165.603 119.699 165.039 119.707C164.476 119.716 163.873 119.775 163.229 119.885C162.586 119.995 161.929 120.165 161.255 120.395L161.786 124.208Z" fill="white"/>
<path d="M186.301 115.816L190.819 113.184L191.516 118.191L186.707 118.733L187.248 122.616C187.92 122.385 188.565 122.113 189.179 121.798C189.794 121.483 190.358 121.145 190.872 120.785C191.386 120.425 191.851 120.052 192.267 119.664C192.683 119.276 193.035 118.892 193.324 118.511L195.63 117.722L196.883 126.716L176.077 133.838L175.101 126.828L177.065 125.733L175.678 115.772L173.602 116.058L172.633 109.102L193.439 101.98L194.691 110.975L192.385 111.764C192.023 111.618 191.601 111.505 191.12 111.424C190.639 111.344 190.116 111.308 189.554 111.316C188.99 111.324 188.388 111.384 187.745 111.494C187.102 111.604 186.443 111.774 185.77 112.004L186.301 115.816Z" fill="white"/>
<path d="M224.789 131.838L166.882 190.324L169.585 192.641C189.852 175.783 230.194 141.991 229.422 141.682C228.65 141.374 226.012 134.991 224.789 131.838Z" fill="#FF9924" stroke="#FF9924"/>
</g>
<defs>
<clipPath id="clip0_18230_3038">
<rect width="294" height="235" fill="white"/>
</clipPath>
</defs>
</svg>
