<svg width="294" height="235" viewBox="0 0 294 235" fill="none" xmlns="http://www.w3.org/2000/svg">
<path d="M52.7367 128.325C52.7367 128.325 43.4777 90.7967 66.3107 69.1507C89.1417 47.5037 119.274 40.2237 144.99 38.9767C170.706 37.7057 203.824 46.8807 213.118 101.959C222.413 157.033 179.296 176.937 142.227 184.37C105.15 191.779 66.8797 188.92 52.7367 128.325Z" fill="white"/>
<path d="M181.247 154.475C181.247 154.475 158.264 170.482 127.826 174.964C97.3912 179.461 83.6142 171.306 71.6412 144.846C59.6682 118.397 68.6512 86.8847 91.8212 73.0717C91.8212 73.0717 127.484 51.9587 152.257 54.1287C173.254 55.9687 184.368 60.7207 194.538 80.1387C204.712 99.5567 207.817 136.674 181.247 154.475Z" fill="#EB1400"/>
<path d="M140.719 47.2977C118.331 49.9137 92.311 58.1097 73.165 78.4647C54.013 98.8227 63.417 131.228 63.417 131.228C77.902 183.599 111.382 183.845 143.454 175.131C175.528 166.416 212.423 146.371 202.369 98.5697C192.313 50.7547 163.105 44.6737 140.719 47.2977ZM181.247 154.475C181.247 154.475 158.264 170.482 127.826 174.964C97.391 179.461 83.614 171.306 71.641 144.846C59.668 118.397 68.651 86.8847 91.821 73.0717C91.821 73.0717 127.484 51.9587 152.257 54.1287C173.254 55.9687 184.368 60.7207 194.538 80.1387C204.712 99.5567 207.817 136.674 181.247 154.475Z" fill="#FF9924"/>
<path d="M128.244 112.656C128.244 114.175 127.96 115.484 127.392 116.583C126.843 117.681 126.102 118.615 125.168 119.384C124.234 120.153 123.154 120.785 121.927 121.279C120.719 121.755 119.456 122.13 118.137 122.405C116.819 122.68 115.492 122.863 114.155 122.954C112.837 123.046 111.601 123.092 110.448 123.092C109.313 123.092 108.132 123.046 106.905 122.954C105.697 122.881 104.488 122.744 103.28 122.542C102.072 122.341 100.882 122.075 99.71 121.746C98.5382 121.398 97.4305 120.968 96.387 120.455L96.332 85.083C97.3573 84.6619 98.4467 84.2866 99.6001 83.957C100.754 83.6092 101.925 83.3254 103.115 83.1057C104.324 82.8677 105.523 82.6937 106.713 82.5839C107.903 82.4557 109.056 82.3917 110.173 82.3917C111.473 82.3917 112.782 82.474 114.1 82.6388C115.437 82.8036 116.719 83.0782 117.945 83.4627C119.172 83.8472 120.316 84.3507 121.378 84.9732C122.44 85.5773 123.365 86.328 124.152 87.2251C124.957 88.1222 125.58 89.1658 126.019 90.3559C126.477 91.5459 126.706 92.9191 126.706 94.4753C126.706 95.5006 126.559 96.4618 126.266 97.3589C125.974 98.256 125.552 99.0616 125.003 99.7756C124.454 100.49 123.786 101.103 122.998 101.616C122.211 102.11 121.323 102.476 120.335 102.714C121.525 103.025 122.605 103.483 123.575 104.087C124.564 104.691 125.397 105.424 126.074 106.284C126.77 107.145 127.301 108.115 127.667 109.195C128.052 110.276 128.244 111.429 128.244 112.656ZM114.293 97.0019C114.293 96.4709 114.183 96.0224 113.963 95.6562C113.743 95.2717 113.469 94.9605 113.139 94.7224C112.828 94.4844 112.48 94.3105 112.096 94.2007C111.73 94.0908 111.4 94.0359 111.107 94.0359C110.741 94.0359 110.384 94.0908 110.036 94.2007C109.688 94.3105 109.349 94.4387 109.02 94.5851L108.855 100.682C109.276 100.682 109.798 100.645 110.42 100.572C111.043 100.499 111.638 100.343 112.206 100.105C112.791 99.8488 113.286 99.4827 113.689 99.0066C114.091 98.5123 114.293 97.8441 114.293 97.0019ZM110.393 105.955C109.862 105.955 109.349 106.01 108.855 106.12L108.745 112.381C109.02 112.436 109.285 112.491 109.542 112.546C109.816 112.582 110.082 112.601 110.338 112.601C110.723 112.601 111.144 112.564 111.601 112.491C112.059 112.399 112.489 112.235 112.892 111.997C113.295 111.74 113.624 111.402 113.881 110.98C114.155 110.559 114.293 110.001 114.293 109.305C114.293 108.609 114.155 108.042 113.881 107.602C113.624 107.163 113.304 106.824 112.92 106.586C112.535 106.33 112.114 106.165 111.656 106.092C111.199 106 110.777 105.955 110.393 105.955Z" fill="white"/>
<path d="M144.557 83.7648L141.536 121.169L129.946 121.773V84.5338L144.557 83.7648Z" fill="white"/>
<path d="M179.352 116.83C178.492 117.91 177.43 118.853 176.166 119.659C174.903 120.464 173.548 121.132 172.102 121.663C170.655 122.194 169.173 122.588 167.653 122.844C166.133 123.119 164.687 123.256 163.314 123.256C160.659 123.256 158.215 122.78 155.981 121.828C153.748 120.876 151.816 119.567 150.187 117.901C148.575 116.217 147.312 114.239 146.397 111.969C145.481 109.699 145.024 107.255 145.024 104.637C145.024 102.641 145.252 100.691 145.71 98.7869C146.168 96.8645 146.818 95.0612 147.66 93.3768C148.52 91.6741 149.564 90.1179 150.791 88.7081C152.017 87.28 153.409 86.0534 154.965 85.0281C156.521 84.0028 158.224 83.2064 160.073 82.6388C161.922 82.0713 163.9 81.7875 166.005 81.7875C166.792 81.7875 167.635 81.8241 168.532 81.8973C169.429 81.9523 170.317 82.0621 171.196 82.2269C172.093 82.3733 172.962 82.5839 173.805 82.8585C174.647 83.1332 175.416 83.4719 176.111 83.8746L175.342 94.3654C174.317 93.981 173.255 93.7246 172.157 93.5965C171.077 93.45 170.015 93.3768 168.971 93.3768C167.506 93.3768 166.133 93.6056 164.852 94.0633C163.588 94.5027 162.481 95.1435 161.529 95.9857C160.595 96.8279 159.853 97.8532 159.304 99.0616C158.755 100.27 158.48 101.634 158.48 103.154C158.48 104.106 158.608 105.03 158.865 105.927C159.121 106.806 159.506 107.593 160.018 108.289C160.549 108.966 161.199 109.516 161.968 109.937C162.755 110.358 163.662 110.568 164.687 110.568C165.383 110.568 166.097 110.477 166.829 110.294C167.58 110.111 168.22 109.8 168.751 109.36L168.861 107.218L162.27 107.108L162.6 98.8693C165.328 98.7778 168.056 98.7046 170.784 98.6496C173.512 98.5764 176.258 98.4849 179.022 98.375L179.352 116.83Z" fill="white"/>
<path d="M112.59 145.141C112.59 146.491 112.354 147.674 111.881 148.689C111.418 149.694 110.777 150.532 109.959 151.202C109.151 151.872 108.2 152.375 107.106 152.71C106.022 153.045 104.854 153.213 103.602 153.213C103.119 153.213 102.587 153.149 102.005 153.02C101.434 152.892 100.852 152.735 100.261 152.547C99.6695 152.35 99.0979 152.143 98.5459 151.926C98.0039 151.7 97.5209 151.488 97.0971 151.291L97.7476 145.2C98.5854 145.703 99.5118 146.087 100.527 146.353C101.552 146.609 102.557 146.737 103.543 146.737C103.73 146.737 103.957 146.732 104.223 146.723C104.489 146.703 104.74 146.659 104.977 146.59C105.223 146.511 105.43 146.397 105.598 146.25C105.765 146.102 105.849 145.89 105.849 145.614C105.849 145.427 105.79 145.269 105.672 145.141C105.553 145.003 105.401 144.894 105.213 144.815C105.026 144.727 104.814 144.663 104.578 144.623C104.341 144.574 104.11 144.54 103.883 144.52C103.656 144.5 103.444 144.49 103.247 144.49C103.05 144.49 102.892 144.49 102.774 144.49C101.926 144.49 101.153 144.342 100.453 144.047C99.7631 143.751 99.1669 143.342 98.6642 142.82C98.1714 142.287 97.787 141.662 97.5111 140.942C97.2351 140.213 97.0971 139.424 97.0971 138.577C97.0971 137.414 97.3288 136.374 97.792 135.457C98.2651 134.531 98.8909 133.747 99.6695 133.107C100.458 132.456 101.36 131.959 102.375 131.614C103.39 131.269 104.44 131.096 105.524 131.096C106.007 131.096 106.504 131.116 107.017 131.155C107.529 131.185 108.037 131.244 108.54 131.333C109.052 131.421 109.55 131.535 110.033 131.673C110.516 131.811 110.974 131.983 111.408 132.19L110.846 138.192C110.176 137.966 109.471 137.778 108.732 137.631C108.003 137.473 107.288 137.394 106.588 137.394C106.46 137.394 106.293 137.399 106.086 137.409C105.888 137.409 105.677 137.424 105.45 137.453C105.233 137.473 105.011 137.507 104.785 137.557C104.558 137.606 104.356 137.675 104.179 137.764C104.001 137.843 103.858 137.951 103.75 138.089C103.641 138.227 103.592 138.39 103.602 138.577C103.612 138.794 103.691 138.971 103.838 139.109C103.996 139.237 104.193 139.341 104.43 139.419C104.676 139.488 104.942 139.538 105.228 139.567C105.524 139.597 105.815 139.617 106.1 139.626C106.386 139.626 106.652 139.626 106.899 139.626C107.145 139.617 107.347 139.621 107.505 139.641C108.293 139.69 109.003 139.858 109.634 140.144C110.264 140.43 110.797 140.809 111.23 141.282C111.674 141.755 112.009 142.322 112.236 142.982C112.472 143.633 112.59 144.352 112.59 145.141Z" fill="white"/>
<path d="M131.942 151.734L124.61 152.68L123.723 149.339H120.352L119.613 152.68L112.073 151.941L117.957 132.249L126.177 131.835L131.942 151.734ZM123.19 144.815L122.067 139.671L120.973 144.815H123.19Z" fill="white"/>
<path d="M145.248 144.579L144.627 151.143L132.179 152.119C132.238 148.679 132.302 145.259 132.371 141.859C132.45 138.459 132.543 135.039 132.652 131.599H140.339C140.113 133.757 139.896 135.916 139.689 138.074C139.482 140.223 139.334 142.391 139.245 144.579C139.709 144.599 140.167 144.609 140.62 144.609C141.074 144.609 141.532 144.609 141.995 144.609C142.547 144.609 143.089 144.604 143.621 144.594C144.154 144.584 144.696 144.579 145.248 144.579Z" fill="white"/>
<path d="M159.943 131.688C159.883 132.614 159.829 133.531 159.78 134.437C159.731 135.344 159.667 136.261 159.588 137.187L153.319 137.512L153.172 139.375H157.577L157.252 143.958L152.817 144.106L152.669 146.264H158.937C158.878 147.348 158.814 148.428 158.745 149.502C158.686 150.566 158.632 151.636 158.582 152.71L145.839 153.006L146.312 131.688H159.943Z" fill="white"/>
<path d="M191.919 64.2847L192.094 41.6127C179.598 30.8747 164.344 29.4727 151.378 30.9927C143.365 31.9287 134.888 33.5857 126.426 36.2527V65.3017L162.436 57.9827L191.919 64.2847Z" fill="white"/>
<path d="M130.928 12.4337H196.758L196.421 60.6837L162.999 53.4247L130.928 60.3377V12.4337Z" fill="#FF9924"/>
<path opacity="0.3" d="M130.928 12.4337H196.758L196.421 16.2567L130.928 16.2287V12.4337Z" fill="white"/>
<path d="M155.776 38.7227C155.816 40.1799 155.588 41.4539 155.091 42.5447C154.606 43.6351 153.924 44.546 153.047 45.2772C152.17 46.0084 151.131 46.5646 149.931 46.9459C148.73 47.3272 147.44 47.5371 146.061 47.5755C145.4 47.594 144.748 47.5673 144.107 47.4955C143.465 47.4124 142.828 47.3012 142.196 47.1618C141.575 47.0108 140.953 46.8375 140.331 46.6417C139.719 46.4456 139.102 46.2329 138.479 46.0035L138.931 39.2938C139.341 39.5067 139.778 39.702 140.243 39.8797C140.708 40.0575 141.183 40.2069 141.669 40.3279C142.166 40.4487 142.662 40.5414 143.157 40.6061C143.664 40.6705 144.153 40.6961 144.624 40.683C144.904 40.6751 145.245 40.6432 145.647 40.5871C146.049 40.5198 146.433 40.4137 146.799 40.2689C147.165 40.1128 147.474 39.9135 147.725 39.6709C147.987 39.4168 148.113 39.0936 148.102 38.7013C148.092 38.3314 147.976 38.0149 147.756 37.7518C147.546 37.4884 147.271 37.2773 146.93 37.1186C146.6 36.9483 146.226 36.8185 145.809 36.7292C145.391 36.6399 144.969 36.5732 144.541 36.529C144.125 36.4845 143.726 36.462 143.345 36.4614C142.974 36.4605 142.666 36.4635 142.419 36.4704C141.915 36.4845 141.4 36.5213 140.874 36.5809C140.36 36.6401 139.858 36.7438 139.369 36.8921L139.662 23.2878L153.271 22.5378L153.837 29.5556L145.383 29.3204L145.299 32.318C145.8 32.1806 146.302 32.0768 146.804 32.0067C147.307 31.9254 147.81 31.8777 148.315 31.8636C149.335 31.8351 150.287 31.9768 151.171 32.2887C152.065 32.589 152.846 33.0384 153.513 33.6368C154.192 34.2348 154.728 34.9658 155.123 35.8298C155.528 36.6823 155.746 37.6466 155.776 38.7227ZM177.349 34.5533C177.377 35.5397 177.292 36.5236 177.095 37.5051C176.909 38.4862 176.621 39.4309 176.232 40.3393C175.842 41.2476 175.355 42.0969 174.772 42.8872C174.199 43.6772 173.534 44.3689 172.777 44.9621C172.019 45.5554 171.18 46.0275 170.259 46.3786C169.348 46.7293 168.361 46.9195 167.296 46.9492C166.22 46.9793 165.212 46.8447 164.273 46.5456C163.333 46.2465 162.469 45.8219 161.68 45.2718C160.901 44.7214 160.199 44.068 159.572 43.3114C158.945 42.5549 158.412 41.734 157.972 40.8489C157.532 39.9637 157.187 39.0367 156.935 38.0677C156.695 37.0872 156.561 36.1094 156.534 35.1342C156.506 34.159 156.585 33.1752 156.771 32.1829C156.968 31.1902 157.261 30.2397 157.65 29.3314C158.04 28.4231 158.527 27.5738 159.111 26.7834C159.694 25.9819 160.359 25.2847 161.105 24.6917C161.863 24.0985 162.702 23.6263 163.623 23.2753C164.556 22.9239 165.554 22.7334 166.619 22.7037C167.684 22.674 168.681 22.8088 169.609 23.1082C170.548 23.4073 171.413 23.8319 172.202 24.382C172.992 24.9321 173.694 25.5912 174.31 26.3592C174.937 27.1158 175.471 27.9366 175.91 28.8218C176.35 29.7069 176.69 30.6398 176.931 31.6202C177.182 32.6004 177.322 33.5781 177.349 34.5533ZM170.268 35.2557C170.254 34.7625 170.171 34.2151 170.02 33.6136C169.869 33.012 169.645 32.4518 169.35 31.9327C169.056 31.4137 168.685 30.981 168.237 30.6345C167.79 30.288 167.264 30.1232 166.659 30.1401C166.042 30.1573 165.52 30.3513 165.093 30.7222C164.666 31.0931 164.314 31.5461 164.037 32.081C163.772 32.6157 163.58 33.1875 163.463 33.7966C163.345 34.4056 163.293 34.9568 163.307 35.45C163.321 35.9432 163.403 36.4906 163.555 37.0921C163.706 37.6936 163.929 38.2539 164.224 38.7729C164.53 39.2916 164.907 39.7242 165.354 40.0707C165.801 40.4172 166.333 40.5819 166.95 40.5647C167.555 40.5478 168.071 40.3539 168.498 39.983C168.925 39.6121 169.272 39.1593 169.537 38.6247C169.803 38.09 169.994 37.5181 170.112 36.9091C170.23 36.3 170.282 35.7489 170.268 35.2557Z" fill="white"/>
<path d="M191.208 40.7418C191.218 41.1196 191.15 41.496 191.004 41.8711C190.857 42.2391 190.638 42.5733 190.347 42.874C190.056 43.1675 189.699 43.4129 189.276 43.6102C188.86 43.8001 188.385 43.9026 187.851 43.9175C187.323 43.9322 186.843 43.8564 186.41 43.6901C185.985 43.5165 185.618 43.2913 185.311 43.0145C185.01 42.7304 184.776 42.4088 184.609 42.0496C184.442 41.6833 184.353 41.3112 184.343 40.9334C184.333 40.5627 184.401 40.1898 184.547 39.8147C184.694 39.4396 184.909 39.1054 185.193 38.8121C185.485 38.5115 185.838 38.2662 186.254 38.0763C186.676 37.879 187.151 37.773 187.679 37.7582C188.213 37.7433 188.694 37.8227 189.119 37.9963C189.552 38.1626 189.922 38.3877 190.23 38.6716C190.537 38.9484 190.774 39.2699 190.942 39.6362C191.109 40.0026 191.198 40.3711 191.208 40.7418ZM188.791 40.7878C188.787 40.6738 188.763 40.5532 188.716 40.426C188.677 40.2916 188.613 40.1685 188.524 40.0569C188.435 39.9381 188.322 39.8413 188.184 39.7667C188.054 39.6919 187.896 39.657 187.71 39.6622C187.525 39.6674 187.366 39.7111 187.233 39.7933C187.099 39.8755 186.992 39.9783 186.909 40.1019C186.827 40.2184 186.766 40.3449 186.727 40.4816C186.688 40.6111 186.67 40.7329 186.673 40.8469C186.677 40.961 186.701 41.0851 186.748 41.2194C186.794 41.3465 186.862 41.4695 186.951 41.5883C187.04 41.6999 187.153 41.7931 187.29 41.8677C187.428 41.9424 187.59 41.9771 187.775 41.9719C187.96 41.9668 188.116 41.9232 188.242 41.8412C188.375 41.759 188.483 41.6597 188.566 41.5432C188.648 41.4196 188.705 41.2932 188.737 41.1639C188.776 41.0272 188.794 40.9019 188.791 40.7878ZM182.933 35.6648C182.944 36.0426 182.876 36.4191 182.729 36.7941C182.582 37.1621 182.364 37.4964 182.072 37.797C181.781 38.0905 181.424 38.3359 181.001 38.5332C180.586 38.7231 180.11 38.8256 179.576 38.8405C179.048 38.8552 178.568 38.7794 178.135 38.6132C177.71 38.4396 177.343 38.2144 177.036 37.9376C176.735 37.6534 176.502 37.3318 176.335 36.9726C176.167 36.6063 176.079 36.2342 176.068 35.8564C176.058 35.4857 176.126 35.1128 176.272 34.7377C176.419 34.3627 176.634 34.0285 176.918 33.7352C177.21 33.4345 177.563 33.1892 177.979 32.9993C178.401 32.802 178.876 32.696 179.404 32.6813C179.939 32.6663 180.419 32.7457 180.845 32.9193C181.277 33.0856 181.647 33.3107 181.955 33.5946C182.262 33.8714 182.5 34.1929 182.667 34.5593C182.834 34.9256 182.923 35.2941 182.933 35.6648ZM180.516 35.7108C180.513 35.5968 180.488 35.4762 180.442 35.3491C180.402 35.2146 180.338 35.0916 180.249 34.9799C180.16 34.8611 180.047 34.7644 179.909 34.6897C179.779 34.6149 179.621 34.5801 179.436 34.5852C179.25 34.5904 179.091 34.6341 178.958 34.7163C178.824 34.7985 178.717 34.9014 178.635 35.0249C178.552 35.1414 178.492 35.2679 178.453 35.4046C178.413 35.5341 178.395 35.6559 178.399 35.7699C178.402 35.884 178.427 36.0081 178.473 36.1424C178.52 36.2695 178.587 36.3925 178.676 36.5113C178.765 36.623 178.878 36.7161 179.016 36.7908C179.153 36.8654 179.315 36.9001 179.5 36.8949C179.685 36.8898 179.841 36.8462 179.967 36.7642C180.101 36.682 180.208 36.5827 180.291 36.4662C180.373 36.3426 180.43 36.2162 180.462 36.0869C180.501 35.9503 180.519 35.8249 180.516 35.7108ZM187.114 32.1022C186.257 34.1166 185.465 36.1649 184.739 38.2469C184.019 40.3217 183.35 42.4165 182.731 44.5312L180.484 43.7806C180.876 42.7352 181.264 41.6935 181.649 40.6554C182.041 39.61 182.44 38.5715 182.846 37.54C183.26 36.5082 183.688 35.4868 184.131 34.4756C184.573 33.4573 185.048 32.4524 185.555 31.4608L187.114 32.1022Z" fill="white"/>
</svg>
