<svg width="294" height="235" viewBox="0 0 294 235" fill="none" xmlns="http://www.w3.org/2000/svg">
<path d="M242.87 38.2447L218.357 78.5665L252.626 52.2619L242.87 38.2447Z" fill="#FF051F"/>
<path d="M253.778 67.2116L225.203 80.7745L255.149 79.8999L253.778 67.2116Z" fill="#FF051F"/>
<path d="M52.1541 191.998L76.667 151.676L42.3984 177.981L52.1541 191.998Z" fill="#FF051F"/>
<path d="M41.2468 163.031L69.8211 149.468L39.8757 150.342L41.2468 163.031Z" fill="#FF051F"/>
<path d="M251.025 102.074C202.407 95.5561 194.14 84.717 211.005 46.0226C170.788 70.5916 155.704 67.3138 133.799 31.1821C124.243 71.662 110.85 78.8758 64.6389 66.2525C92.9673 98.7005 88.4812 111.302 44.0361 130.683C92.6553 137.201 100.919 148.041 84.0566 186.735C124.273 162.163 139.357 165.44 161.26 201.572C170.817 161.092 184.211 153.878 230.423 166.505C202.092 134.058 206.581 121.455 251.025 102.074Z" fill="#FFD500"/>
<path d="M251.96 113.107C204.306 101.481 197.236 89.8276 218.109 53.1356C175.512 73.3103 160.861 68.4547 142.911 30.2083C129.117 69.4492 115.034 75.2051 70.4211 57.7626C95.149 93.0258 89.3518 105.082 43.1013 119.65C90.7556 131.277 97.8236 142.93 76.9523 179.622C119.549 159.443 134.2 164.299 152.148 202.545C165.944 163.305 180.027 157.549 224.641 174.995C199.91 139.732 205.71 127.676 251.96 113.107Z" fill="#FF051F"/>
<path d="M116.495 90.4355C117.579 90.4856 118.389 90.7486 118.927 91.224C119.464 91.6995 119.733 92.4348 119.733 93.4303C119.733 94.0992 119.66 94.6783 119.514 95.1672C119.368 95.6565 119.183 96.0712 118.959 96.4117C118.736 96.7523 118.495 97.0271 118.236 97.2376C117.976 97.4474 117.734 97.6118 117.511 97.7293C117.288 97.8469 117.026 97.9457 116.726 98.0261C116.989 97.9898 117.275 97.9665 117.583 97.9552C117.889 97.9437 118.194 97.9592 118.494 98.0013C118.793 98.0435 119.082 98.1173 119.361 98.223C119.638 98.3292 119.881 98.4846 120.09 98.689C120.298 98.894 120.467 99.1509 120.595 99.4607C120.723 99.7703 120.786 100.148 120.786 100.594C120.786 101.263 120.703 101.901 120.534 102.51C120.366 103.118 120.068 103.674 119.64 104.176C119.212 104.68 118.636 105.12 117.911 105.498C117.187 105.877 116.265 106.174 115.145 106.391L103.173 108.712V104.265L104.489 103.753V97.0321L103.173 97.0311V93.0184L116.495 90.4355ZM114.18 95.7666C114.18 95.3875 114.12 95.1076 113.998 94.927C113.878 94.7458 113.717 94.6267 113.517 94.5686C113.314 94.5117 113.089 94.4992 112.836 94.5335C112.583 94.5677 112.325 94.6099 112.062 94.6609L111.097 94.848V98.0137L112.062 97.8266C112.325 97.7755 112.583 97.7169 112.836 97.649C113.089 97.5815 113.315 97.4783 113.517 97.3388C113.717 97.1999 113.878 97.0069 113.998 96.7603C114.12 96.5134 114.18 96.183 114.18 95.7666ZM114.18 101.106C114.18 100.727 114.12 100.448 113.998 100.272C113.878 100.094 113.717 99.9767 113.517 99.9188C113.314 99.8616 113.089 99.8498 112.836 99.8834C112.583 99.9182 112.325 99.9603 112.062 100.011L111.097 100.199V103.364L112.062 103.177C112.325 103.126 112.583 103.066 112.836 102.999C113.089 102.931 113.315 102.827 113.517 102.683C113.717 102.54 113.878 102.346 113.998 102.099C114.12 101.853 114.18 101.522 114.18 101.106Z" fill="white"/>
<path d="M139.79 90.568C139.782 90.7927 139.779 91.0106 139.779 91.2221C139.779 91.4345 139.779 91.637 139.779 91.8295V93.5574C139.779 95.0441 139.577 96.3552 139.175 97.4921C138.772 98.6289 138.227 99.6022 137.54 100.412C136.852 101.221 136.045 101.853 135.119 102.307C134.195 102.762 133.212 103.09 132.174 103.291C130.973 103.524 129.852 103.603 128.808 103.53C127.766 103.458 126.859 103.156 126.088 102.626C125.315 102.096 124.708 101.346 124.266 100.376C123.823 99.4073 123.602 98.1801 123.602 96.6938V93.7064L122.285 93.7054V89.3137L130.856 87.6523V92.044L129.539 92.5551V93.8816C129.539 94.0602 129.539 94.2404 129.539 94.4225C129.539 94.6046 129.541 94.7734 129.544 94.9281C129.548 95.084 129.55 95.2189 129.55 95.3341C129.55 95.4496 129.55 95.5257 129.55 95.5629C129.55 95.7336 129.553 95.932 129.561 96.1569C129.568 96.3822 129.597 96.6104 129.649 96.8418C129.7 97.0735 129.778 97.2963 129.885 97.5098C129.991 97.7237 130.141 97.9043 130.335 98.0522C130.529 98.2005 130.774 98.3037 131.071 98.3614C131.366 98.4189 131.734 98.4056 132.174 98.3201C132.612 98.2353 132.983 98.1059 133.287 97.9316C133.59 97.7579 133.839 97.5575 134.033 97.3301C134.227 97.1029 134.379 96.8602 134.488 96.6008C134.599 96.3417 134.677 96.0867 134.724 95.8365C134.772 95.5854 134.802 95.3457 134.812 95.1164C134.824 94.8882 134.829 94.6881 134.829 94.5175C134.829 94.4654 134.829 94.382 134.829 94.2665C134.829 94.1513 134.827 94.0182 134.824 93.8665C134.82 93.7147 134.818 93.5519 134.818 93.3772C134.818 93.2025 134.818 93.0298 134.818 92.8585V91.532L133.501 91.5316V87.1399L141.118 85.6629V90.0547L139.79 90.568Z" fill="white"/>
<path d="M147.499 100.12V95.6947L148.816 95.1047L144.284 89.6861L142.615 89.7641V85.3724L151.428 83.6642V88.0559L150.397 88.501L152.493 91.3157L154.578 87.6905L153.546 87.6454V83.2537L162.348 81.547V85.9388L160.691 86.5054L156.159 93.6812L157.486 93.7586V98.1835L147.499 100.12Z" fill="white"/>
<path d="M169.099 81.6599L188.761 75.8207V104.732L192.037 104.747V115.121L169.1 119.567V109.193L172.377 107.908V92.3084L169.1 92.9437L169.099 81.6599Z" fill="white"/>
<path d="M101.962 122.941C101.962 121.162 102.227 119.577 102.758 118.183C103.288 116.79 104.043 115.58 105.021 114.553C105.998 113.527 107.178 112.679 108.561 112.009C109.944 111.339 111.487 110.839 113.19 110.509C114.225 110.309 115.158 110.18 115.991 110.122C116.824 110.064 117.574 110.051 118.24 110.083C118.905 110.115 119.492 110.179 120 110.274C120.507 110.369 120.956 110.469 121.347 110.573V116.743L117.395 117.509C117.181 117.239 116.97 117.008 116.76 116.817C116.55 116.626 116.325 116.48 116.082 116.381C115.84 116.281 115.57 116.222 115.272 116.205C114.974 116.187 114.625 116.216 114.225 116.294C113.74 116.388 113.268 116.553 112.807 116.789C112.346 117.025 111.936 117.345 111.577 117.75C111.219 118.155 110.93 118.651 110.711 119.238C110.492 119.824 110.384 120.514 110.384 121.308C110.384 122.235 110.472 122.976 110.649 123.533C110.826 124.09 111.082 124.508 111.417 124.789C111.753 125.069 112.165 125.228 112.653 125.265C113.142 125.303 113.703 125.26 114.336 125.137C114.672 125.072 115.018 124.981 115.377 124.864C115.735 124.748 116.123 124.583 116.543 124.369V122.752L113.736 123.296V119.807L121.906 118.224V127.642C121.217 128.068 120.486 128.485 119.713 128.889C118.941 129.294 118.165 129.667 117.388 130.007C116.61 130.347 115.848 130.617 115.104 130.818C114.359 131.019 113.67 131.181 113.037 131.304C111.482 131.605 110.029 131.698 108.679 131.581C107.329 131.465 106.157 131.064 105.16 130.377C104.163 129.69 103.382 128.734 102.813 127.506C102.246 126.278 101.962 124.756 101.962 122.941Z" fill="white"/>
<path d="M134.887 115.622L138.755 114.035V118.078L134.887 117.976V121.111C135.445 121.003 135.986 120.858 136.506 120.677C137.028 120.495 137.513 120.29 137.96 120.062C138.406 119.833 138.816 119.588 139.188 119.327C139.561 119.066 139.882 118.8 140.152 118.53L142.065 118.159V125.421L124.802 128.768V123.108L126.479 122.457V114.414L124.802 114.413V108.796L142.065 105.45V112.713L140.152 113.083C139.882 112.928 139.561 112.792 139.188 112.675C138.816 112.557 138.406 112.472 137.96 112.417C137.513 112.362 137.028 112.342 136.506 112.358C135.986 112.373 135.445 112.436 134.887 112.544V115.622Z" fill="white"/>
<path d="M149.684 109.251C149.199 109.344 148.771 109.494 148.399 109.698C148.026 109.903 147.715 110.128 147.463 110.376C147.211 110.623 147.021 110.875 146.89 111.132C146.76 111.389 146.695 111.617 146.695 111.816L144.362 112.268V105.005L163.413 101.313V108.575L161.08 109.027C161.08 108.828 161.015 108.626 160.885 108.419C160.754 108.213 160.563 108.035 160.312 107.885C160.06 107.735 159.749 107.63 159.376 107.57C159.004 107.51 158.575 107.526 158.091 107.62V116.329L159.767 116.331V121.991L148.007 124.27V118.61L149.683 117.96V109.251H149.684Z" fill="white"/>
<path d="M113.883 144.945L117.774 143.28V147.988L113.883 147.816V150.147L115.707 150.195V156.308L102.908 158.789V152.63L104.732 151.921V143.168L102.908 143.167V137.054L120.586 133.627V141.531L118.048 142.023C117.612 141.644 117.039 141.356 116.33 141.159C115.621 140.962 114.805 140.954 113.883 141.132V144.945Z" fill="white"/>
<path d="M147.375 150.169L138.286 151.931C138.002 151.452 137.708 150.939 137.403 150.397C137.1 149.853 136.806 149.28 136.522 148.676C136.239 148.073 135.973 147.445 135.724 146.793C135.476 146.142 135.266 145.462 135.094 144.755L134.592 144.852V152.647L123.618 154.774V148.615L125.441 147.907V139.123L123.618 139.121V133.039L136.066 130.627C137.718 130.306 139.145 130.102 140.345 130.013C141.546 129.925 142.564 129.938 143.4 130.054C144.236 130.17 144.913 130.375 145.43 130.671C145.946 130.968 146.349 131.337 146.637 131.78C146.926 132.224 147.121 132.734 147.223 133.311C147.324 133.888 147.375 134.511 147.375 135.18C147.375 135.859 147.311 136.489 147.185 137.069C147.058 137.65 146.832 138.203 146.509 138.729C146.184 139.255 145.741 139.766 145.179 140.26C144.616 140.755 143.899 141.257 143.027 141.766C143.21 142.101 143.481 142.488 143.84 142.928C144.2 143.368 144.593 143.811 145.018 144.259C145.444 144.706 145.868 145.136 146.288 145.548C146.709 145.961 147.071 146.313 147.375 146.603V150.169H147.375ZM134.592 140.669C135.149 140.56 135.653 140.435 136.104 140.291C136.555 140.147 136.94 139.948 137.259 139.696C137.579 139.444 137.825 139.116 137.997 138.712C138.169 138.307 138.255 137.792 138.255 137.164C138.255 136.547 138.169 136.069 137.997 135.732C137.825 135.395 137.579 135.157 137.259 135.018C136.94 134.879 136.555 134.823 136.104 134.849C135.653 134.875 135.149 134.941 134.592 135.049V140.669Z" fill="white"/>
<path d="M161.837 135.186L166.047 133.459V137.859L161.837 137.749V141.161C162.445 141.043 163.033 140.885 163.6 140.687C164.167 140.49 164.695 140.267 165.181 140.018C165.668 139.77 166.113 139.504 166.519 139.219C166.924 138.934 167.274 138.645 167.567 138.352L169.65 137.948V145.852L150.863 149.493V143.334L152.687 142.626V133.873L150.863 133.871V127.758L169.65 124.116V132.02L167.567 132.424C167.274 132.254 166.924 132.106 166.519 131.978C166.113 131.852 165.668 131.758 165.181 131.697C164.695 131.637 164.168 131.616 163.6 131.633C163.033 131.651 162.445 131.719 161.837 131.836V135.186Z" fill="white"/>
<path d="M183.975 130.895L188.186 129.168V133.568L183.975 133.457V136.87C184.583 136.751 185.171 136.594 185.739 136.396C186.306 136.199 186.833 135.975 187.319 135.727C187.805 135.478 188.251 135.212 188.657 134.928C189.062 134.643 189.411 134.354 189.706 134.06L191.788 133.657V141.561L173 145.202V139.043L174.824 138.334V129.582L173 129.58V123.467L191.788 119.825V127.729L189.706 128.132C189.411 127.963 189.062 127.815 188.657 127.687C188.251 127.56 187.805 127.467 187.319 127.406C186.833 127.346 186.306 127.325 185.739 127.343C185.171 127.36 184.583 127.427 183.975 127.545V130.895Z" fill="white"/>
</svg>
