<svg width="23" height="24" viewBox="0 0 23 24" fill="none" xmlns="http://www.w3.org/2000/svg">
<path d="M10.7453 0.0529709C10.3032 0.195715 10.073 0.366085 9.20273 1.19492C8.66399 1.71064 8.25878 2.06059 8.16669 2.09282C8.03776 2.13887 7.82595 2.12045 6.89121 1.98691C5.62494 1.81194 5.46377 1.80273 5.08159 1.89943C4.51983 2.04677 4.04555 2.41975 3.78769 2.91705C3.60811 3.25319 3.58048 3.37751 3.37788 4.54709C3.28579 5.06741 3.18909 5.5601 3.16607 5.64299C3.1016 5.84559 2.96807 5.93308 1.97347 6.46261C0.942033 7.00596 0.633523 7.20856 0.449338 7.46181C0.0993864 7.9407 -0.0341477 8.37813 0.00729393 8.91688C0.0395263 9.33129 0.1132 9.51548 0.702592 10.7265C0.965056 11.2698 1.14464 11.6935 1.14464 11.7763C1.14464 11.8592 0.965056 12.2829 0.702592 12.8262C0.1132 14.0372 0.0395263 14.2214 0.00729393 14.6358C-0.0341477 15.1746 0.0993864 15.612 0.449338 16.0909C0.633523 16.3441 0.942033 16.5467 1.97347 17.0901C2.96807 17.6196 3.1016 17.7071 3.16607 17.9097C3.19369 17.9926 3.295 18.5267 3.3963 19.0977C3.5989 20.2443 3.64495 20.41 3.86597 20.783C4.20671 21.3494 4.90662 21.7269 5.60191 21.7223C5.72163 21.7177 6.31563 21.6487 6.92344 21.5658C7.81674 21.4415 8.05157 21.423 8.1713 21.4645C8.25878 21.4921 8.69162 21.8697 9.21194 22.3624C9.97631 23.0945 10.1467 23.2327 10.446 23.3754C10.7821 23.5366 10.8097 23.5412 11.3209 23.5412C11.832 23.5412 11.8596 23.5366 12.1957 23.3754C12.495 23.2327 12.6654 23.0945 13.4298 22.3624C14.079 21.7454 14.3645 21.5013 14.4888 21.4645C14.627 21.423 14.8618 21.4461 15.7413 21.5658C16.9799 21.7408 17.1825 21.75 17.5601 21.6533C18.1219 21.5059 18.5962 21.1329 18.854 20.6356C19.0336 20.2995 19.0612 20.1752 19.2638 19.0056C19.3559 18.4853 19.4526 17.9926 19.4757 17.9097C19.5401 17.7071 19.6736 17.6196 20.6682 17.0901C21.6997 16.5467 22.0082 16.3441 22.1924 16.0909C22.5423 15.612 22.6759 15.1746 22.6344 14.6358C22.6022 14.2214 22.5285 14.0372 21.9391 12.8262C21.6767 12.2829 21.4971 11.8592 21.4971 11.7763C21.4971 11.6935 21.6767 11.2698 21.9391 10.7265C22.5285 9.51548 22.6022 9.33129 22.6344 8.91688C22.6759 8.37813 22.5423 7.9407 22.1924 7.46181C22.0082 7.20856 21.6997 7.00596 20.6682 6.46261C19.6736 5.93308 19.5401 5.84559 19.4757 5.64299C19.4526 5.5601 19.3559 5.06741 19.2638 4.54709C19.0612 3.37751 19.0336 3.25319 18.854 2.91705C18.5962 2.41975 18.1219 2.04677 17.5601 1.89943C17.1779 1.80273 17.0168 1.81194 15.7505 1.98691C14.8158 2.12045 14.604 2.13887 14.475 2.09282C14.3829 2.06059 13.9777 1.71064 13.4298 1.19031C12.6608 0.458178 12.495 0.32004 12.1957 0.177296C11.8826 0.0253429 11.8089 0.0115299 11.3899 0.00231934C11.0998 -0.00688934 10.8604 0.0115299 10.7453 0.0529709ZM9.22575 5.76731C9.63096 5.87322 9.99933 6.09424 10.3263 6.41656C10.8236 6.91386 11.0538 7.48023 11.0538 8.18474C11.0492 9.11027 10.5058 9.95292 9.63557 10.3765C7.91804 11.2054 5.90121 9.72729 6.16368 7.82098C6.29261 6.87703 7.04777 6.01596 7.96409 5.77192C8.29562 5.68443 8.88962 5.67982 9.22575 5.76731ZM15.9669 6.66521C16.3077 6.76191 16.5379 7.15331 16.4366 7.46181C16.3629 7.68284 7.15828 16.8691 6.96949 16.9059C6.51823 16.998 6.06698 16.5145 6.20512 16.0909C6.26498 15.9159 15.4144 6.74349 15.6032 6.66982C15.7551 6.60996 15.7827 6.60996 15.9669 6.66521ZM14.4796 12.9782C14.627 13.0058 14.8987 13.0979 15.0736 13.1808C16.6346 13.9359 16.9845 15.9205 15.7735 17.1223C15.267 17.6242 14.7191 17.8545 14.0376 17.8545C13.3699 17.8545 12.8082 17.6242 12.3339 17.1546C12.1819 17.0026 12.0023 16.7862 11.9379 16.6757C11.4083 15.7732 11.4774 14.6819 12.1082 13.8991C12.7161 13.1531 13.5817 12.8124 14.4796 12.9782Z" fill="#EB1400"/>
</svg>
