<svg width="16" height="17" viewBox="0 0 16 17" fill="none" xmlns="http://www.w3.org/2000/svg">
<g clip-path="url(#clip0_3168_58599)">
<path d="M15.2288 10.5299L10.4622 8.77657L15.2703 7.0233C15.519 6.94538 15.6848 6.67265 15.6433 6.43888C15.5604 5.93238 15.3117 5.46484 15.0216 5.03626C14.7729 4.56873 14.4413 4.17911 14.0268 3.82845C13.8196 3.67261 13.5294 3.67261 13.3222 3.82845L9.30155 6.86746L10.1306 2.07518C10.2135 1.80246 10.0477 1.56869 9.79894 1.49076C9.30154 1.29595 8.72125 1.21803 8.18241 1.25699C7.64357 1.21803 7.06328 1.29595 6.56589 1.49076C6.31719 1.56869 6.15139 1.84141 6.23429 2.07518L7.06328 6.86746L3.04269 3.82845C2.83544 3.63365 2.54529 3.63365 2.33805 3.82845C1.92355 4.14014 1.59196 4.56873 1.34326 5.03626C1.01167 5.46484 0.804414 5.93238 0.680066 6.43888C0.638616 6.71161 0.804415 6.94538 1.05311 7.0233L5.77835 8.77657L0.970212 10.5299C0.721515 10.6078 0.555719 10.8805 0.597168 11.1143C0.680067 11.6208 0.887314 12.0883 1.21891 12.5169C1.46761 12.9845 1.7992 13.374 2.2137 13.7247C2.42094 13.8806 2.71109 13.8806 2.91834 13.7247L6.93893 10.6857L6.10994 15.4779C6.02704 15.7507 6.19284 15.9845 6.44154 16.1014C6.98038 16.2572 7.51922 16.3351 8.05806 16.2962C8.59691 16.3351 9.1772 16.2572 9.67459 16.1014C9.92329 16.0234 10.0891 15.7507 10.0062 15.4779L9.1772 10.6857L13.1978 13.7247C13.4051 13.8806 13.6952 13.8806 13.9439 13.7247C14.3584 13.413 14.69 13.0233 14.9387 12.5559C15.2703 12.1272 15.4775 11.6598 15.6019 11.1532C15.6433 10.8415 15.519 10.6078 15.2288 10.5299Z" fill="#EB1400"/>
</g>
<defs>
<clipPath id="clip0_3168_58599">
<rect width="16" height="16" fill="white" transform="translate(0 0.385132)"/>
</clipPath>
</defs>
</svg>
