<svg width="17" height="17" viewBox="0 0 17 17" fill="none" xmlns="http://www.w3.org/2000/svg">
<g clip-path="url(#clip0_3168_58654)">
<path d="M16.0237 10.6946L11.2571 8.94129L16.0652 7.18803C16.3139 7.1101 16.4797 6.83738 16.4382 6.60361C16.3553 6.0971 16.1066 5.62957 15.8165 5.20099C15.5678 4.73345 15.2362 4.34383 14.8217 3.99318C14.6145 3.83734 14.3243 3.83734 14.1171 3.99318L10.0965 7.03218L10.9255 2.23991C11.0084 1.96718 10.8426 1.73341 10.5939 1.65548C10.0965 1.46068 9.51617 1.38276 8.97733 1.42172C8.43849 1.38276 7.8582 1.46068 7.36081 1.65548C7.11211 1.73341 6.94631 2.00614 7.02921 2.23991L7.8582 7.03218L3.83761 3.99318C3.63036 3.79837 3.34021 3.79837 3.13297 3.99318C2.71847 4.30487 2.38688 4.73345 2.13818 5.20099C1.80659 5.62957 1.59934 6.0971 1.47499 6.60361C1.43354 6.87633 1.59934 7.1101 1.84803 7.18803L6.57327 8.94129L1.76513 10.6946C1.51644 10.7725 1.35064 11.0452 1.39209 11.279C1.47499 11.7855 1.68224 12.253 2.01383 12.6816C2.26253 13.1492 2.59412 13.5387 3.00862 13.8894C3.21586 14.0453 3.50601 14.0453 3.71326 13.8894L7.73385 10.8505L6.90486 15.6426C6.82196 15.9154 6.98776 16.1492 7.23646 16.2661C7.7753 16.4219 8.31414 16.4999 8.85298 16.4609C9.39183 16.4999 9.97212 16.4219 10.4695 16.2661C10.7182 16.1882 10.884 15.9154 10.8011 15.6426L9.97212 10.8505L13.9927 13.8894C14.2 14.0453 14.4901 14.0453 14.7388 13.8894C15.1533 13.5777 15.4849 13.1881 15.7336 12.7206C16.0652 12.292 16.2724 11.8245 16.3968 11.3179C16.4382 11.0062 16.3139 10.7725 16.0237 10.6946Z" fill="white"/>
</g>
<defs>
<clipPath id="clip0_3168_58654">
<rect width="16" height="16" fill="white" transform="translate(0.794922 0.54985)"/>
</clipPath>
</defs>
</svg>
