<svg xmlns="http://www.w3.org/2000/svg" width="16" height="16" fill="none" viewBox="0 0 16 16"><path fill="#fff" d="M14.638 9.283 9.87 7.529l4.808-1.753c.25-.078.415-.35.373-.584-.082-.507-.331-.974-.621-1.403a4.1 4.1 0 0 0-.995-1.208.59.59 0 0 0-.705 0l-4.02 3.04.83-4.794C9.623.555 9.457.32 9.208.244A3.8 3.8 0 0 0 7.592.01a3.8 3.8 0 0 0-1.617.234c-.249.077-.414.35-.332.584l.83 4.792-4.021-3.039a.5.5 0 0 0-.705 0c-.414.312-.746.74-.995 1.208A3.7 3.7 0 0 0 .09 5.192a.524.524 0 0 0 .373.584l4.726 1.753-4.81 1.754c-.248.078-.414.35-.373.584q.124.76.622 1.403c.249.467.58.857.995 1.207a.59.59 0 0 0 .705 0l4.02-3.039-.829 4.793c-.083.272.083.506.332.623a4.6 4.6 0 0 0 1.616.195 4.5 4.5 0 0 0 1.617-.195.504.504 0 0 0 .331-.623l-.829-4.793 4.02 3.04c.208.155.498.155.747 0q.622-.468.995-1.17c.331-.428.539-.896.663-1.402.041-.312-.083-.545-.373-.623"/></svg>