<svg xmlns="http://www.w3.org/2000/svg" width="44" height="44" fill="none" viewBox="0 0 44 44"><path fill="#eb1400" d="M25.346 25.993c-1.522-7.841-8.705-11.405-16.036-10.016.84-4.4 4.959-7.997 7.635-11.34.38-.475.575-1.309 0-1.756-1.41-1.096-2.727-1.437-3.94-1.264-.085-.23-.307-.402-.597-.31-4.305 1.355-7.094 5.954-8.96 9.766C.989 16.103-.247 21.928.042 27.518c.457 8.814 8.326 17.218 17.696 14.771 6.84-1.786 8.783-10.254 7.61-16.296M7.814 33.046q0-.004.003-.008.063-.248.119-.499.19.247.343.543-.241.032-.467.038zM5.832 12.362q.17.074.358.09a29 29 0 0 0-1.008 2.245 1.3 1.3 0 0 0-.372-.054c.31-.773.656-1.53 1.022-2.28m-.94 22.372c.294.305.61.596.94.877a1.2 1.2 0 0 0-.127.204c-.293-.343-.57-.7-.813-1.08m8.451-.03a5.1 5.1 0 0 1-.842-1.631.4.4 0 0 0-.042-.132 5 5 0 0 1-.127-.631c.62.842 1.117 1.779 1.579 2.726a3.4 3.4 0 0 1-.568-.332"/><path fill="#eb1400" d="M26.774 14.559c.829-3.347 3.089-5.658 4.73-8.676.268-.491.163-1.254-.396-1.514-1.022-.475-1.94-1.002-2.962-1.393-.31-.66-1.244-1.092-1.959-.448-1.264 1.14-2.644 2.6-3.747 4.233-1.462 1.793-2.512 3.97-2.86 6.065-.042.248.001.5.098.729l-.158.273c-.267.462-.115 1.084.354 1.352 5.566 3.173 7.868 8.34 7.704 13.785-.281.794-.353 1.652-.246 2.515-.45 2.74-1.482 5.483-3.005 8.017-.343.569-.215 1.102.12 1.463.087.285.317.526.73.62 8.874 2.004 17.8-2.243 18.763-11.924.896-9.009-8.488-16.6-17.166-15.097m3.376 25.034.09-.092a5.1 5.1 0 0 0 2.191-.66c.008.031.012.06.02.092.02.087.065.153.1.227-.783.199-1.586.347-2.401.433m6.293-16.937c-.084.154-.158.31-.232.465-.006-.044-.007-.088-.013-.132.01-.32.067-.65.154-.987l.03.018q.065.278.11.567c-.015.024-.035.044-.049.069m4.24 9.715q.004-.318-.008-.64.211-.353.376-.729c-.09.48-.22.93-.368 1.369"/></svg>