<svg xmlns="http://www.w3.org/2000/svg" width="17" height="17" fill="none" viewBox="0 0 17 17"><g clip-path="url(#clip0_3168_58654)"><path fill="#fff" d="M16.024 10.695 11.257 8.94l4.808-1.753c.249-.078.415-.35.373-.584-.083-.507-.331-.974-.621-1.403a4.1 4.1 0 0 0-.995-1.208.59.59 0 0 0-.705 0l-4.02 3.04.829-4.793c.082-.273-.083-.507-.332-.585a3.8 3.8 0 0 0-1.617-.233 3.8 3.8 0 0 0-1.616.233c-.249.078-.415.351-.332.585l.83 4.792-4.021-3.039a.5.5 0 0 0-.705 0c-.415.312-.746.74-.995 1.208a3.7 3.7 0 0 0-.663 1.403.524.524 0 0 0 .373.584L6.573 8.94l-4.808 1.754c-.249.078-.414.35-.373.584q.124.76.622 1.403c.249.467.58.857.995 1.207a.59.59 0 0 0 .704 0l4.02-3.038-.828 4.792c-.083.272.083.506.331.623a4.6 4.6 0 0 0 1.617.195 4.5 4.5 0 0 0 1.617-.195.505.505 0 0 0 .331-.623l-.829-4.792 4.02 3.038c.208.156.498.156.747 0q.621-.466.995-1.168c.331-.429.538-.896.663-1.403.041-.312-.083-.545-.373-.623"/></g><defs><clipPath id="clip0_3168_58654"><path fill="#fff" d="M.795.55h16v16h-16z"/></clipPath></defs></svg>