<svg xmlns="http://www.w3.org/2000/svg" width="308" height="42" fill="none" viewBox="0 0 308 42"><g filter="url(#filter0_i_6445_46054)"><path fill="url(#paint0_linear_6445_46054)" d="M37.062 2.087c-2.408.688-4.922 3.493-5.32 5.875-.185 1.19-.344 1.323-1.296.979-.424-.159-1.562-.291-2.54-.318-1.43 0-2.091.133-3.256.688-2.567 1.27-4.367 4.05-4.367 6.775 0 2.647 1.826 5.531 4.261 6.749 1.72.9 2.223 1.8 1.403 2.62-.318.344-1.006.423-3.15.423-2.963 0-3.572.132-3.572.688 0 .318 1.032.37 5.98.37h4.896a2.62 2.62 0 0 1 1.853.768c.635.662.768 1.006.768 2.09 0 1.06-.133 1.43-.688 2.012-.459.442-1.07.69-1.707.693l-9.62.048c-9.845.08-10.612.106-10.692.556-.08.423.688.45 13.444.45 14.661 0 14.635 0 15.297 1.455.555 1.244.397 2.488-.45 3.335a2.62 2.62 0 0 1-1.853.767h-6.43c-4.13 0-7.649.106-7.86.238-1.139.741.238.82 12.57.82 13.682 0 13.867-.026 14.847-1.481.423-.662.502-1.535.608-7.754l.1-5.286c.02-1.008.7-1.884 1.673-2.15 3.044-.821 4.976-2.674 5.796-5.505 1.164-4.023-1.614-8.495-5.77-9.263-1.11-.212-3.254-.053-4.604.344-.503.159-.582.053-.741-.847-.794-4.366-5.425-7.357-9.58-6.14"/></g><path stroke="#fff" stroke-width="1.72" d="M34.733 41.03c6.811 0 10.338-.007 12.273-.201.965-.097 1.656-.25 2.186-.547.564-.317.856-.75 1.1-1.115l.007-.008.005-.009c.329-.514.467-1.074.556-2.188.089-1.111.135-2.914.188-6.013l.1-5.285a1.415 1.415 0 0 1 1.037-1.337l.308-.088c3.14-.936 5.209-2.967 6.09-6.008 1.307-4.517-1.79-9.488-6.439-10.347-.664-.125-1.561-.134-2.433-.069-.747.056-1.53.17-2.208.337l-.014-.075-.001-.005c-.88-4.836-5.99-8.177-10.662-6.811V1.26c-1.404.4-2.766 1.389-3.816 2.553s-1.882 2.604-2.116 4.007l-.002.01q-.03.194-.058.334l-.096-.032c-.319-.116-.795-.198-1.25-.253a17 17 0 0 0-1.56-.115h-.023c-.736 0-1.328.032-1.903.153-.581.122-1.106.324-1.722.618l-.012.006c-2.838 1.405-4.844 4.469-4.844 7.545 0 2.98 2.015 6.15 4.721 7.51l.29.159c.625.36.91.651 1.007.829.022.04.027.063.029.071v.007a.1.1 0 0 1-.02.047.7.7 0 0 1-.112.138l-.01.01c-.03.014-.13.052-.384.085-.416.055-1.07.076-2.147.076-1.461 0-2.443.03-3.064.152-.306.06-.658.164-.934.407a1.26 1.26 0 0 0-.43.866l-.005.123.007.117a1 1 0 0 0 .353.649c.174.146.37.215.502.253.273.078.64.117 1.08.143.909.055 2.433.069 4.899.069H30.1c.465 0 .909.184 1.239.51.287.3.38.447.43.582.056.152.092.379.092.906 0 .511-.035.748-.089.904-.044.128-.12.257-.344.494a1.62 1.62 0 0 1-1.106.447l-9.62.047H20.7c-4.911.04-7.59.066-9.045.14-.707.036-1.21.086-1.554.183-.176.05-.4.136-.59.31-.216.2-.304.435-.34.625H9.17c-.035.186-.054.56.247.884.222.239.513.321.673.36.358.085.932.127 1.805.157 1.795.06 5.195.067 11.564.067 7.361 0 10.961 0 12.817.178.944.09 1.277.215 1.408.3.076.048.11.082.288.473.438.983.272 1.824-.274 2.37-.33.33-.778.516-1.245.516h-6.43c-2.071 0-3.992.027-5.426.07a53 53 0 0 0-1.755.077 10 10 0 0 0-.557.05c-.073.01-.15.02-.22.035-.03.006-.199.038-.358.137l-.007.005-.007.004c-.135.088-.387.257-.546.502a1 1 0 0 0-.147.736c.065.33.278.53.424.631.253.175.579.243.82.284q.427.072 1.097.113c1.778.115 5.241.135 11.392.135Z"/><path fill="url(#paint1_linear_6445_46054)" d="M37.062 2.087c-2.408.688-4.922 3.493-5.32 5.875-.185 1.19-.344 1.323-1.296.979-.424-.159-1.562-.291-2.54-.318-1.43 0-2.091.133-3.256.688-2.567 1.27-4.367 4.05-4.367 6.775 0 2.647 1.826 5.531 4.261 6.749 1.72.9 2.223 1.8 1.403 2.62-.318.344-1.006.423-3.15.423-2.963 0-3.572.132-3.572.688 0 .318 1.032.37 5.98.37h4.896a2.62 2.62 0 0 1 1.853.768c.635.662.768 1.006.768 2.09 0 1.06-.133 1.43-.688 2.012-.459.442-1.07.69-1.707.693l-9.62.048c-9.845.08-10.612.106-10.692.556-.08.423.688.45 13.444.45 14.661 0 14.635 0 15.297 1.455.555 1.244.397 2.488-.45 3.335a2.62 2.62 0 0 1-1.853.767h-6.43c-4.13 0-7.649.106-7.86.238-1.139.741.238.82 12.57.82 13.682 0 13.867-.026 14.847-1.481.423-.662.502-1.535.608-7.754l.1-5.286c.02-1.008.7-1.884 1.673-2.15 3.044-.821 4.976-2.674 5.796-5.505 1.164-4.023-1.614-8.495-5.77-9.263-1.11-.212-3.254-.053-4.604.344-.503.159-.582.053-.741-.847-.794-4.366-5.425-7.357-9.58-6.14"/><path fill="#c30303" fill-opacity=".2" d="M37.062 2.087c-2.408.688-4.922 3.493-5.32 5.875-.185 1.19-.344 1.323-1.296.979-.424-.159-1.562-.291-2.54-.318-1.43 0-2.091.133-3.256.688-2.567 1.27-4.367 4.05-4.367 6.775 0 2.647 1.826 5.531 4.261 6.749 1.72.9 2.223 1.8 1.403 2.62-.318.344-1.006.423-3.15.423-2.963 0-3.572.132-3.572.688 0 .318 1.032.37 5.98.37h4.896a2.62 2.62 0 0 1 1.853.768c.635.662.768 1.006.768 2.09 0 1.06-.133 1.43-.688 2.012-.459.442-1.07.69-1.707.693l-9.62.048c-9.845.08-10.612.106-10.692.556-.08.423.688.45 13.444.45 14.661 0 14.635 0 15.297 1.455.555 1.244.397 2.488-.45 3.335a2.62 2.62 0 0 1-1.853.767h-6.43c-4.13 0-7.649.106-7.86.238-1.139.741.238.82 12.57.82 13.682 0 13.867-.026 14.847-1.481.423-.662.502-1.535.608-7.754l.1-5.286c.02-1.008.7-1.884 1.673-2.15 3.044-.821 4.976-2.674 5.796-5.505 1.164-4.023-1.614-8.495-5.77-9.263-1.11-.212-3.254-.053-4.604.344-.503.159-.582.053-.741-.847-.794-4.366-5.425-7.357-9.58-6.14"/><path fill="#e31101" d="M9.746 33.041a.53.53 0 0 1 .53-.53h21.17v1.06h-21.17a.53.53 0 0 1-.53-.53m9.316-6.663c0-.269.218-.487.487-.487h10.118v.975H19.55a.487.487 0 0 1-.487-.488"/><path fill="#e31001" d="M21.655 39.657a.53.53 0 0 1 .53-.53h21.17v1.06h-21.17a.53.53 0 0 1-.53-.53"/><circle cx="5.16" cy="33.057" r="1.433" fill="#fff"/><circle cx=".86" cy="33.057" r=".86" fill="#fff"/><path fill="#fff" d="M70.024 35.802V5.617H80.78q8.05 0 11.687 3.986 3.637 3.947 3.637 11.106t-3.637 11.144Q88.83 35.8 80.78 35.8zm6.5-5.031h3.87q2.98 0 4.953-.89 2.013-.93 3.019-3.096 1.006-2.205 1.006-6.075t-1.006-6.037q-1.006-2.205-3.019-3.096-1.972-.928-4.953-.928h-3.87zm22.153 5.031V12.583h5.727v4.256h.929a6.6 6.6 0 0 1 .851-2.167q.658-1.044 1.974-1.664 1.316-.657 3.521-.658h1.239V18h-1.703q-3.29 0-4.798 1.664-1.471 1.664-1.471 4.992V35.8zm25.403.58q-5.495 0-8.397-3.29-2.864-3.288-2.864-8.938 0-3.792 1.277-6.501 1.315-2.71 3.792-4.18 2.516-1.47 6.114-1.47 5.186 0 7.933 3.134 2.786 3.135 2.786 9.21v1.316h-15.788q.194 2.94 1.509 4.644 1.355 1.664 3.638 1.664 1.819 0 2.902-1.084 1.122-1.083 1.471-2.515h5.959a10 10 0 0 1-1.548 3.947q-1.2 1.819-3.367 2.94-2.166 1.123-5.417 1.123m-5.147-14.666h9.674q-.154-2.631-1.315-4.063-1.162-1.47-3.328-1.47-2.129 0-3.444 1.392-1.277 1.355-1.587 4.14m26.332 14.551q-3.25 0-5.34-1.548-2.09-1.587-3.096-4.334t-1.006-6.23q0-3.6 1.006-6.308 1.045-2.709 3.135-4.218t5.262-1.509q2.439 0 3.986.968a6.1 6.1 0 0 1 2.399 2.515h.929v-3.018h5.804V35.8h-5.804v-3.018h-.929q-.812 1.47-2.36 2.477-1.548 1.005-3.986 1.006m1.625-4.412q2.36 0 3.754-2.05 1.431-2.09 1.432-5.611 0-3.56-1.432-5.612-1.393-2.05-3.754-2.05-2.129 0-3.366 1.934-1.2 1.897-1.2 5.727 0 3.832 1.2 5.766 1.238 1.896 3.366 1.896m15.798 3.949V12.583h5.804v3.482h.929q.657-1.665 2.089-2.863 1.432-1.2 4.141-1.2 2.399 0 3.986 1.084 1.625 1.044 2.476 2.98h.929a6.9 6.9 0 0 1 2.167-2.903q1.47-1.16 4.063-1.16 3.754 0 5.611 2.437 1.858 2.437 1.858 6.617V35.8h-6.269V22.103q0-2.362-.774-3.676-.774-1.316-2.516-1.316-2.128 0-3.25 1.78-1.084 1.78-1.084 4.373V35.8h-6.268V22.103q0-2.362-.774-3.676-.774-1.316-2.516-1.316-2.09 0-3.211 1.78-1.123 1.78-1.123 4.373V35.8zm46.727.58q-3.87 0-6.192-1.2-2.283-1.238-3.366-3.095-1.046-1.858-1.2-3.715h5.96q.193 1.006.812 1.857.658.813 1.703 1.277 1.083.465 2.592.465 1.858 0 2.671-.62.812-.657.812-1.664 0-.929-.774-1.547-.735-.659-2.438-1.2l-2.786-.929a36 36 0 0 1-3.715-1.509q-1.703-.851-2.747-2.167-1.006-1.315-1.006-3.405 0-3.096 2.36-4.992 2.36-1.935 6.695-1.935 3.134 0 5.108.967 2.012.968 3.018 2.593a7.6 7.6 0 0 1 1.161 3.522h-5.727q-.193-1.394-1.161-2.129-.967-.774-2.631-.774-1.51 0-2.284.58-.735.582-.735 1.587 0 1.007.813 1.664.813.658 2.476 1.2l2.787.89q2.011.62 3.676 1.47 1.702.813 2.709 2.167 1.006 1.317 1.006 3.444 0 3.251-2.477 5.224-2.438 1.974-7.12 1.974"/><path fill="url(#paint2_linear_6445_46054)" stroke="#fff" stroke-width="1.369" d="M253.229 17.203c4.748 0 8.424 4.452 8.424 9.714s-3.676 9.714-8.424 9.714-8.424-4.452-8.424-9.714 3.677-9.714 8.424-9.714Z"/><path fill="url(#paint3_linear_6445_46054)" stroke="#fff" stroke-width="1.369" d="M274.154 13.477c4.748 0 8.424 4.452 8.424 9.714s-3.676 9.714-8.424 9.714-8.424-4.452-8.424-9.714 3.677-9.714 8.424-9.714Z"/><circle cx="256.382" cy="29.64" r="3.153" fill="#fff"/><circle cx="270.714" cy="25.914" r="3.153" fill="#fff"/><path fill="#fff" d="M225.031 35.946V7.626h18.663v4.793h-12.636v6.426h9.586v4.43h-9.586v12.671zm70.25.436q-2.976 0-4.901-1.452-1.924-1.489-2.869-4.067-.944-2.577-.944-5.846 0-3.375.944-5.918.98-2.541 2.905-3.957 1.96-1.416 4.865-1.416 2.142 0 3.486.762a5.77 5.77 0 0 1 2.178 2.07h.872V6.9h5.882v29.046h-5.447v-2.832h-.871q-.762 1.38-2.215 2.324-1.452.945-3.885.944m1.671-4.14q2.214 0 3.521-1.923 1.344-1.961 1.344-5.265 0-3.34-1.344-5.265-1.307-1.924-3.521-1.924-1.998 0-3.159 1.815-1.126 1.779-1.126 5.374t1.126 5.41q1.161 1.779 3.159 1.779"/><defs><linearGradient id="paint0_linear_6445_46054" x1="38.725" x2="61.198" y1="30.222" y2="5.97" gradientUnits="userSpaceOnUse"><stop stop-color="#eb1400"/><stop offset="1" stop-color="#ff9924"/></linearGradient><linearGradient id="paint1_linear_6445_46054" x1="38.725" x2="61.198" y1="30.222" y2="5.97" gradientUnits="userSpaceOnUse"><stop stop-color="#eb1400"/><stop offset="1" stop-color="#ff9924"/></linearGradient><linearGradient id="paint2_linear_6445_46054" x1="253.31" x2="260.026" y1="29.04" y2="18.988" gradientUnits="userSpaceOnUse"><stop stop-color="#eb1400"/><stop offset="1" stop-color="#ff9924"/></linearGradient><linearGradient id="paint3_linear_6445_46054" x1="275.672" x2="283.152" y1="18.845" y2="23.631" gradientUnits="userSpaceOnUse"><stop stop-color="#eb1400"/><stop offset="1" stop-color="#ff9924"/></linearGradient><filter id="filter0_i_6445_46054" width="51.453" height="42.71" x="8.292" y=".091" color-interpolation-filters="sRGB" filterUnits="userSpaceOnUse"><feFlood flood-opacity="0" result="BackgroundImageFix"/><feBlend in="SourceGraphic" in2="BackgroundImageFix" result="shape"/><feColorMatrix in="SourceAlpha" result="hardAlpha" values="0 0 0 0 0 0 0 0 0 0 0 0 0 0 0 0 0 0 127 0"/><feOffset dy=".913"/><feGaussianBlur stdDeviation="16.429"/><feComposite in2="hardAlpha" k2="-1" k3="1" operator="arithmetic"/><feColorMatrix values="0 0 0 0 0 0 0 0 0 0 0 0 0 0 0 0 0 0 0.25 0"/><feBlend in2="shape" result="effect1_innerShadow_6445_46054"/></filter></defs></svg>